<svg id="Слой_1" data-name="Слой 1" xmlns="http://www.w3.org/2000/svg" viewBox="0 0 1310.47521 392.17021"><defs><style>.cls-1{fill:#fff;}</style></defs><path class="cls-1" d="M279.29816,33.67418a7.99428,7.99428,0,0,0,.012,1.49352C281.2486,45.17949,275.653,51.469,268.77474,57.454c-5.33229,4.63978-10.11354,9.91263-15.11794,14.92576q-11.67839,11.69875-23.32031,23.43375c-5.32428,5.38726-10.53129,10.89047-15.879,16.25414-5.22743,5.24309-10.58,10.36156-15.85333,15.55937q-7.73828,7.62745-15.42323,15.30876c-5.34647,5.35716-10.63024,10.77671-15.97776,16.13281Q155.69444,170.5958,144.12642,182.064c-3.15771,3.12856-6.21836,6.39262-9.64664,9.20151-4.25436,3.48573-4.07792,8.90158.067,12.66266,6.058,5.497,11.64969,11.5048,17.47166,17.2631,5.13645,5.08027,10.3443,10.08871,15.469,15.18063,5.46533,5.43027,10.83848,10.9531,16.31033,16.37674,5.35929,5.31209,10.81584,10.52624,16.18594,15.82758,5.13966,5.07386,10.22841,10.19918,15.32971,15.31167q8.17338,8.19132,16.32928,16.4c5.32757,5.34835,10.63964,10.71232,15.99317,16.03464q8.04049,7.99362,16.14926,15.9187c4.80851,4.72713,9.6349,9.43612,14.42984,14.17689a2.131,2.131,0,0,1,.682,1.30165c-.01888,8.1.19566,16.21773-.3098,24.28982-.16976,2.71119-2.5808,3.16816-4.74937.969-10.48541-10.63322-20.94645-21.29092-31.4967-31.85978-12.06264-12.0839-24.2405-24.05308-36.31228-36.128-11.71228-11.71531-23.31483-23.54-35.03684-35.24553-11.7331-11.71662-23.58955-23.31012-35.32585-35.02359-9.27518-9.25715-18.44851-18.616-27.6724-27.9244a39.50377,39.50377,0,0,0-2.86772-2.75994c-6.31978-5.20348-6.05593-7.878-.041-13.4691,7.4572-6.93182,14.36769-14.4469,21.59781-21.62625,5.25568-5.2188,10.68458-10.26331,15.96663-15.45613,5.16334-5.07612,10.22762-10.25249,15.35522-15.365q8.211-8.18682,16.45735-16.33824,7.70513-7.65644,15.4002-15.32292c5.60069-5.56339,11.22705-11.10114,16.80946-16.68271,5.12335-5.12259,10.20248-10.28927,15.30225-15.43535q8.00029-8.07292,16.00663-16.13977c5.34869-5.35967,10.76388-10.65351,16.08642-16.03876,5.324-5.38671,10.584-10.83684,15.83667-16.29311,1.02-1.05949,1.73176-2.45062,2.84786-3.3724a32.67159,32.67159,0,0,1,4.28387-2.60581c.87834,1.6064,2.33284,3.153,2.50771,4.83239.306,2.93893-.17377,5.95941-.32432,8.94572Z"/><path class="cls-1" d="M1085.28741,360.15033a19.69313,19.69313,0,0,0-.00963-2.46389c-1.93282-7.98886,2.91044-12.9895,7.90264-17.93678,8.28222-8.20784,16.51175-16.46941,24.84069-24.62982,7.51732-7.36513,15.23894-14.52444,22.68515-21.95954,7.44779-7.43665,14.56515-15.20329,22.013-22.64,7.44718-7.43629,15.21223-14.55507,22.67551-21.97583,7.343-7.301,14.37256-14.917,21.74107-22.19148q11.574-11.42622,23.56983-22.42254c3.86222-3.52566,4.13739-8.95921.44472-12.55294q-17.83665-17.35929-35.44288-34.95417c-12.10894-12.06152-24.10689-24.23415-36.19217-36.31942q-24.12251-24.12229-48.30136-48.188c-7.2802-7.26732-14.57443-14.52155-21.76912-21.87268-1.34953-1.37893-3.09646-3.12667-3.222-4.8111-.51632-6.924-.56877-13.88962-.54193-20.839a3.70938,3.70938,0,0,1,2.13261-2.85085c.893-.19405,2.28276.89726,3.15146,1.737,10.18931,9.85044,20.41544,19.66613,30.44179,29.68064,9.42671,9.41559,18.54617,19.13744,27.95215,28.57418,7.42937,7.45372,15.173,14.59492,22.62148,22.03011,7.334,7.32079,14.43049,14.87829,21.71106,22.25315,5.09026,5.156,10.3264,10.16794,15.477,15.26474q11.22677,11.10961,22.42046,22.25245c5.59414,5.5777,11.10887,11.2352,16.73314,16.78225,4.5665,4.504,9.45062,8.70546,13.79745,13.40646,2.8497,3.08179.45252,5.9683-1.76864,8.23547-7.44877,7.603-15.04891,15.05772-22.56989,22.59039q-72.28041,72.39315-144.60536,144.74191c-1.48273,1.48124-3.76342,2.16633-5.67208,3.22257-.82-2.21928-1.99429-4.38232-2.35912-6.67387A22.49077,22.49077,0,0,1,1085.28741,360.15033Z"/><path class="cls-1" d="M359.42184,237.025c-7.65637,0-15.31287.02449-22.96911-.00806-5.74664-.02441-9.77349,3.97318-12.55663,10.2738a191.147,191.147,0,0,1-12.25656,22.96564c-1.10479,1.79156-4.68744,2.2499-7.23845,2.89982-1.88461.48014-3.95175.19884-5.92433.39149-5.345.52188-7.05392-1.21607-6.23292-6.60141a15.604,15.604,0,0,1,1.20129-4.28767c2.02827-4.28721,4.18482-8.515,6.34228-12.74,3.29869-6.46,6.71412-12.8616,9.93639-19.359,2.19994-4.436,4.18908-8.97777,6.21164-13.49937,2.899-6.481,5.625-13.04177,8.64168-19.467,3.22218-6.8627,6.72619-13.593,10.05013-20.40876q3.35526-6.88021,6.54368-13.84115,4.40775-9.67628,8.66556-19.42048c2.38538-5.42467,4.55885-10.94735,7.1023-16.29573,1.52746-3.21186,3.85825-2.90072,5.73969-.24075a42.68331,42.68331,0,0,1,4.28473,7.29361c3.07383,6.962,5.76189,14.09518,8.89219,21.03033,3.05374,6.76546,6.49419,13.35606,9.71016,20.04963,2.42776,5.05308,4.89,10.09513,7.12471,15.23409,5.07431,11.669,9.8983,23.44749,15.05885,35.07765,3.14253,7.08228,6.74445,13.96056,10.09794,20.95061,2.70174,5.63148,5.63137,11.178,7.93093,16.97153,2.68321,6.76015-.06489,9.44787-7.45163,9.42711-5.74252-.01614-10.93143-.06052-14.32831-5.53178a18.60743,18.60743,0,0,1-1.64682-2.47522c-2.699-6.558-5.47838-13.08947-7.93069-19.7402-2.0475-5.55289-6.056-8.60663-12.029-8.59-7.65631.02138-15.31267.00522-22.969.00522Zm.34522-19.12452.0003-.0198c5.158,0,10.33726.29213,15.4681-.08031,5.36492-.38943,6.53975-3.26739,3.68176-7.75979a41.98307,41.98307,0,0,1-2.91057-5.18567c-4.21649-9.33424-8.2578-18.74928-12.623-28.01268a6.86586,6.86586,0,0,0-4.21942-3.38753c-.79777-.16809-2.53061,2.18558-3.21422,3.68337-5.00945,10.97542-9.70957,22.09336-14.82685,33.01713-2.42547,5.17771-1.67136,7.28586,4.16877,7.67925C350.09657,218.15812,354.94054,217.90051,359.76706,217.90051Z"/><path class="cls-1" d="M595.97362,193.08815q0-34.87578.01482-69.75155c.00841-5.54794,1.80017-7.46845,7.29807-7.89572a31.09476,31.09476,0,0,1,5.97238.1675c5.751.67059,7.11815,2.14735,7.14755,8.00523.08746,17.43983.0866,34.88007.12734,52.32016.005,2.15821-.27676,4.38682.16766,6.45578a44.75848,44.75848,0,0,0,2.55,6.72375,45.32706,45.32706,0,0,0,5.89932-2.57884c11.17973-6.84564,22.45547-8.30586,35.09689-3.31594a41.13816,41.13816,0,0,1,19.83759,16.39779,49.33066,49.33066,0,0,1,8.00363,26.27328c.13326,16.42212-5.50687,30.01125-17.90483,40.84784-11.57292,10.11545-32.032,11.37293-44.44433,2.51151-3.47458-2.48052-6.53048-2.61088-9.90357.2543a16.25281,16.25281,0,0,1-6.05393,3.27049c-9.89662,2.67415-14.51264-1.225-14.45726-11.42054.12349-22.75443.03854-45.51.03854-68.26509ZM641.4265,198.298c-8.90485.01319-19.30468,5.82039-22.753,13.64122-5.33787,12.10652-6.60525,26.62288,6.18389,39.17908,10.38123,10.19208,31.15838,7.07372,38.19414-7.57621,4.7308-9.85062,5.55505-19.33784.77583-29.5853C660.22693,206.23653,650.01378,198.28526,641.4265,198.298Z"/><path class="cls-1" d="M443.60128,227.50522c0-11.95263.03248-23.90535-.01412-35.85779-.02223-5.701,3.01334-9.04561,8.55533-8.38807,4.381.51977,8.62421,2.13368,12.99942,2.79388a10.22312,10.22312,0,0,0,6.385-.86681c11.9275-7.32562,22.52042-6.61683,33.31838,2.5267,1.37941,1.16806,2.88913,2.59573,4.53445,2.924,1.713.34181,4.35014.15916,5.40486-.93075a31.43223,31.43223,0,0,1,42.41872-2.73258c4.20619,3.40111,6.9996,9.16869,9.05158,14.39708,1.56549,3.98883,1.21042,8.83188,1.24445,13.29847.12161,15.9497.04745,31.9009.04208,47.85154-.00335,10.09746-7.71443,15.04456-16.5305,9.95215-2.11667-1.22264-3.244-5.64609-3.32193-8.63662-.35059-13.44875-.11755-26.91179-.18854-40.3692a78.38018,78.38018,0,0,0-.60439-12.42226c-1.70753-10.24061-13.21837-16.48148-20.86952-11.02741-4.81347,3.4312-8.74158,8.24353-9.42638,14.66652a81.695,81.695,0,0,0-.43643,8.45476c-.03144,13.29065.20934,26.58659-.12737,39.8685-.08093,3.19185-1.25848,8.37035-3.22206,9.08093a22.18917,22.18917,0,0,1-13.494.22434c-1.8693-.59619-3.05413-5.89269-3.129-9.08975-.31491-13.45-.26041-26.91568-.00024-40.36906.13676-7.07348-1.34288-13.36052-5.54861-19.19248-3.84776-5.3355-11.43-7.711-16.46293-3.68864-4.56961,3.652-9.318,7.68269-9.45758,14.49688-.07132,3.484-.55392,6.96237-.56584,10.44426-.04315,12.625-.04031,25.25125.09188,37.87548.09066,8.6586-2.09553,10.62059-12.59776,10.755-5.65894.07243-8.05712-3.21484-8.01937-10.66364.05974-11.79059.01595-23.58169.01595-35.37259Z"/><path class="cls-1" d="M1015.052,273.48838c-14.81,0-29.62009-.02977-44.42987.016-5.25328.01625-6.97727-2.63737-4.29023-7.2767,6.87488-11.86966,13.99462-23.59839,20.82967-35.49051,5.41325-9.41829,10.43179-19.06263,15.84236-28.48252,5.25-9.14045,10.82552-18.094,16.16327-27.185,3.34229-5.69234,6.86054-11.32266,9.661-17.28016,3.09524-6.58485.97471-9.41237-6.16126-9.30157q-19.96357.31-39.92784.57927c-6.00342.07165-8.31668-2.85027-7.99643-9.8967.34811-7.66027,2.57739-9.68931,8.83812-9.674,25.27724.06177,50.55516-.18356,75.8327-.16133,1.90806.00168,5.20175.89225,5.44118,1.926a11.60647,11.60647,0,0,1-.9009,7.50082c-3.60876,6.80013-7.73078,13.33009-11.69094,19.94266-5.33445,8.90715-10.79418,17.74095-16.02239,26.70951-3.14506,5.395-5.89,11.02094-8.92912,16.47961-2.80609,5.04017-5.75386,10.002-8.65912,14.98675-3.32156,5.69912-6.62721,11.40808-10.01641,17.067a58.87181,58.87181,0,0,1-4.88833,7.3827c-2.45456,2.96809-3.99577,6.50006-1.66239,9.47542,1.40734,1.79464,5.07879,2.517,7.736,2.52363,16.96611.04244,33.93319-.32813,50.89955-.29875,1.619.00277,4.55052,1.72614,4.62809,2.81075a81.17343,81.17343,0,0,1-.40874,15.48734c-.1138.94018-3.22727,2.14386-4.9684,2.16374-14.97133.17119-29.94559.09837-44.91894.09837Z"/><path class="cls-1" d="M753.06745,225.58229c-1.37246-8.41558,2.33619-17.508,6.96154-25.54512,6.455-11.216,17.16036-17.64724,30.23479-19.58742a44.91815,44.91815,0,0,1,29.81642,5.63768c6.0488,3.60553,11.2733,9.92432,14.69323,16.209,3.30314,6.07012,4.08409,13.59829,5.48393,20.58365,1.21841,6.08008-1.48992,9.08244-7.83549,9.09888-15.126.03922-30.25229-.10042-45.37859-.139-3.69792-.00945-7.9704-1.43184-10.16948,3.0913-2.31253,4.75633.065,9.01559,2.71034,12.50774,5.99215,7.91025,14.13532,10.87045,24.12385,9.295,6.00507-.94716,10.10014-4.56839,13.23587-8.97321,6.53646-9.182,16.86652-4.64691,20.54425,1.70963a5.84059,5.84059,0,0,1-.44832,5.217c-14.9953,19.92266-30.70525,24.5429-54.366,18.10951C764.12918,267.75455,752.37543,250.72837,753.06745,225.58229Zm45.1635-27.13257c-8.05054-1.10467-13.04651,4.22479-18.33126,8.22891-1.52139,1.15272-1.57573,5.33967-.9228,7.76529.30915,1.14868,3.85264,1.94459,5.957,2.00587,8.30827.242,16.6319.29376,24.93822.03734,2.17944-.06727,5.7602-1.06866,6.15613-2.39635.704-2.3612.43985-6.41121-1.13943-7.78771C810.11381,202.14112,805.25561,197.29185,798.231,198.44972Z"/><path class="cls-1" d="M863.14585,227.70927c0-11.96634.10349-23.934-.052-35.89837-.06038-4.641,2.08235-7.77109,6.37111-8.02085a37.23171,37.23171,0,0,1,13.54368,1.66587c4.48728,1.47952,8.15354,1.75477,12.20018-.98724,12.48847-8.46223,32.48877-4.48182,41.1751,8.55031,3.47512,5.21376,4.88955,12.52831,5.1868,18.981.81,17.585.61939,35.2204.618,52.83583-.00048,5.71575-3.01717,8.35754-8.81244,8.60149-10.00232.421-12.547-2.5938-12.51372-12.43243.05556-16.43008-.48711-32.86407-.913-49.29293a12.76817,12.76817,0,0,0-9.694-12.55569c-6.21261-1.7527-12.46645-1.97528-18.12,3.33229a18.33612,18.33612,0,0,0-6.27366,13.47967c-.47381,15.10751-1.25384,30.238-.8387,45.33.30817,11.20211-5.66922,13.70762-15.94408,11.56342-4.968-1.03672-5.89493-5.27555-5.886-9.74881q.03513-17.70156.00787-35.40327Z"/><path class="cls-1" d="M731.85338,228.00383c0,11.78244-.02092,23.56492.00744,35.34727.01824,7.589-2.92356,10.31812-11.28836,10.35149-7.191.02868-10.53266-3.12956-10.546-10.227-.045-23.90861.02512-47.81755-.082-71.72579-.0197-4.39722,2.05461-7.23163,5.99409-7.95617a32.69309,32.69309,0,0,1,10.77594.11827c3.782.59283,5.37532,3.38953,5.35068,7.2667-.078,12.27471-.02885,24.55022-.02885,36.82542Z"/><path class="cls-1" d="M275.31638,296.493c-6.61129-6.44207-13.27117-12.83533-19.82378-19.3363q-20.84838-20.68408-41.60351-41.46184c-9.97093-9.96473-19.88954-19.98168-29.86546-29.94141-1.16572-1.16383-2.56681-2.08941-3.82627-3.16346-4.12524-3.518-3.76855-7.61576.50167-10.93342a94.41634,94.41634,0,0,0,8.15307-7.744c6.24683-6.18383,12.53735-12.32658,18.66543-18.62629,7.28212-7.48608,14.30018-15.23008,21.64718-22.65063,5.15995-5.21158,10.78-9.96646,16.00822-15.114,5.22326-5.14263,10.14824-10.58606,15.32767-15.77458,4.49694-4.50485,9.13149-8.87577,13.80693-13.19619a2.75016,2.75016,0,0,1,2.58091-.37505,2.80027,2.80027,0,0,1,.97638,2.5172c-1.10089,2.35922-2.18625,4.91032-3.95024,6.74539-8.98891,9.351-18.1351,18.55359-27.32418,27.71015q-28.79911,28.6972-57.68483,57.3078c-2.81294,2.79849-1.34917,8.93141,2.22934,12.16376,5.82567,5.26223,11.37185,10.83478,16.99259,16.32068q8.45111,8.24839,16.81,16.59069c5.21345,5.21971,10.33276,10.533,15.52535,15.77362,5.416,5.46611,10.8835,10.88137,16.30417,16.343,6.71663,6.76727,13.52831,13.44887,19.98941,20.45208,1.0453,1.133.48519,3.74232.66716,5.66924Z"/><path class="cls-1" d="M1187.49147,196.80453c-.97226,1.82987-1.57787,4.0565-2.99546,5.47368q-28.3074,28.29957-56.81363,56.40077c-12.01783,11.90723-23.99858,23.8523-36.11606,35.65763-1.016.99-2.94643,1.04449-4.45209,1.53364.03391-2.14953-.842-5.16812.24956-6.30738,7.03418-7.34072,14.59053-14.17868,21.7962-21.36079,7.4356-7.4112,14.60028-15.09281,22.01148-22.529,5.20626-5.22389,10.70038-10.16118,15.93067-15.36195,5.23687-5.2073,10.267-10.62138,15.46326-15.8702,3.11182-3.14333,6.44576-6.069,9.52844-9.23921a27.76827,27.76827,0,0,0,4.1086-5.33979c1.91916-3.307,1.09436-5.85773-1.77852-8.69445q-42.424-41.889-84.49585-84.13278a18.656,18.656,0,0,1-3.748-6.23986c-.30884-.77093.71355-2.47587,1.59262-3.15084.44729-.34349,2.2069.3772,2.89484,1.08226,9.13324,9.36039,18.05827,18.92594,27.29019,28.187,7.37668,7.40006,15.22358,14.33179,22.63709,21.69682,7.40876,7.3603,14.44977,15.08876,21.82072,22.48824,5.19174,5.212,10.66537,10.14436,16.01422,15.20046,2.48865,2.35247,5.04939,4.63529,7.42827,7.09363C1186.594,194.15292,1186.83805,195.38778,1187.49147,196.80453Z"/><path class="cls-1" d="M733.81023,145.40117c-.00251,6.58481-6.52542,13.47416-12.7023,13.41589-6.67855-.063-13.52928-7.05424-13.58441-13.863-.05556-6.86506,6.11564-12.59646,13.42383-12.46714C728.56591,132.62173,733.81309,137.8899,733.81023,145.40117Z"/></svg>