<svg id="Слой_1" data-name="Слой 1" xmlns="http://www.w3.org/2000/svg" viewBox="0 0 818.04255 240.51064"><defs><style>.cls-1{fill:#f9f9f9;}.cls-2{fill:#fff;}</style></defs><rect class="cls-1" x="39.93646" y="7.38298" width="210.54062" height="210.54062" rx="26.42539"/><path class="cls-2" d="M749.86291,122.52608c.68938-.73136,1.158-1.01763,1.31035-1.42241,1.6672-4.42708,3.28372-8.87314,4.91671-13.31306.8846-2.405,1.75784-4.8144,2.6697-7.20913.37269-.97869.88634-1.90476,1.24593-2.88751,1.75622-4.7991,3.45811-9.618,5.22856-14.41182.87983-2.3824,4.80232-4.09842,8.61175-3.86168,5.71243.355,7.489,1.79761,7.72127,7.4359.34563,8.38694.37689,16.79045.3771,25.1869.00014,8.96873-.174,17.93771-.3103,26.906-.03624,2.38019-.74707,4.33493-3.539,4.74533-3.34078.49108-6.1611-.71986-7.046-3.4444a19.457,19.457,0,0,1-.869-5.61267c-.10808-6.39387-.04745-12.79052-.06336-19.1861a24.47659,24.47659,0,0,0-.12092-2.85977c-.23005-1.91033-.42007-4.26856-2.7449-4.33646-.78057-.02279-1.84454,2.44351-2.422,3.91182-2.4594,6.25305-4.82418,12.54416-7.13913,18.85221-.852,2.32153-1.40413,4.75115-2.21106,7.09094-1.42488,4.13129-4.52748,5.90577-8.7035,4.89845a4.48655,4.48655,0,0,1-2.52565-1.63153,34.73582,34.73582,0,0,1-3.74186-6.725c-1.89508-5.06389-3.41416-10.26665-5.1537-15.39008-1.64659-4.84979-3.36433-9.67577-5.09209-14.49749-.17769-.49584-.63688-.8913-1.86052-1.444-.46249,2.10028-1.27818,4.19281-1.32472,6.30223-.1746,7.9193-.09547,15.84412-.11839,23.76684-.00441,1.52689.00582,3.05595-.07016,4.58007-.21113,4.23873-2.00422,5.99754-6.00374,5.9555-3.43029-.03605-5.73388-2.24074-5.8196-6.04929-.15463-6.86948-.11342-13.7439-.11033-20.61624.00427-9.44989-.00975-18.90045.10276-28.34932.05215-4.38585,2.53651-7.29185,6.42045-8.992,5.814-2.545,10.98108.90341,12.82128,5.69668,2.14173,5.57907,3.71059,11.37723,5.856,16.95472,2.23489,5.8101,4.818,11.48956,7.35733,17.17795A14.0904,14.0904,0,0,0,749.86291,122.52608Z"/><path class="cls-2" d="M370.86034,119.32029c.42375-1.76164,1.18323-3.51747,1.214-5.28591.14443-8.30035.07549-16.60423.11489-24.9067a49.49085,49.49085,0,0,1,.2557-5.1417c.26352-2.4075,3.401-4.9716,5.861-4.91405,2.35539.05511,5.60788,2.82084,5.84525,5.02476a29.46274,29.46274,0,0,1,.1486,3.14383c.00368,15.74655-.20793,31.49673.07455,47.23813.14559,8.1123-6.46591,11.92776-13.65088,8.10727a4.53871,4.53871,0,0,1-1.73225-1.43085c-3.14206-5.07838-6.14764-10.24135-9.32163-15.29934-3.67338-5.85384-7.50411-11.60919-11.206-17.44555-1.18054-1.86122-2.16775-3.84453-3.24338-5.772l-1.20812.13026a42.40661,42.40661,0,0,0-1.17144,6.74554c-.14846,9.44567-.02258,18.89541-.13766,28.342-.05075,4.16576-.85917,4.97172-4.768,5.90762a5.52852,5.52852,0,0,1-7.03711-5.00833c-.18924-4.38242-.1465-8.77607-.15167-13.16492-.01463-12.40637-.0391-24.81293.01482-37.2191.02613-6.013,3.41228-9.759,8.71567-9.27293,3.21043.29425,6.00251,1.50833,7.82045,4.85964,2.93556,5.41177,6.53292,10.46388,9.79382,15.70313,2.39093,3.8414,4.61475,7.78771,7.05649,11.59571,1.76509,2.75278,3.76569,5.35525,5.66129,8.02474Z"/><path class="cls-2" d="M518.30019,112.32712c0-8.96566-.12918-17.934.05576-26.89584.08958-4.341.96692-5.47136,5.45343-5.81453,6.74982-.5163,13.55271-.41562,20.3332-.421,2.5682-.002,5.13352.58232,7.70567.63649,9.60622.20233,17.44192,10.71424,17.02541,19.8193-.28738,6.28344-2.36145,11.17725-7.22738,15.04405-2.9193,2.31982-3.55617,4.89-2.18523,8.41088,1.61533,4.14841,3.32918,8.25882,4.92309,12.41517a13.56148,13.56148,0,0,1,.4811,2.80828c.35432,2.33485-.30523,4.35312-2.62687,5.10753-2.30516.74906-4.85562.952-6.483-1.45678a48.53766,48.53766,0,0,1-3.6868-6.41617c-1.89515-4.015-3.31856-8.279-5.5094-12.11471a8.41449,8.41449,0,0,0-5.02147-3.3308,20.66855,20.66855,0,0,0-7.94774-.19515c-2.569.4266-3.06513,2.9469-3.13831,5.19a116.57875,116.57875,0,0,0-.03778,12.5855c.39235,5.17093-5.35435,7.86037-9.3577,5.78319a4.39493,4.39493,0,0,1-2.7258-4.25829q-.00556-13.4483-.00158-26.89661ZM541.536,109.1857c3.20234-.34939,7.24095.75556,10.91975-1.85133,3.40727-2.41452,4.957-5.14562,4.20813-9.11321-.88214-4.67367-4.1674-8.66573-7.95272-8.9429a136.11362,136.11362,0,0,0-14.86509-.26367c-1.12681.041-3.09948,1.60821-3.14129,2.54172-.2208,4.92641-.03978,9.87927.2004,14.81334.09,1.84871,1.41626,2.82486,3.34141,2.81788C536.44164,109.17958,538.6368,109.1857,541.536,109.1857Z"/><path class="cls-2" d="M644.47819,108.89464c-.63282-4.09095,2.25059-10.51646,4.02251-17.08508a12.38831,12.38831,0,0,1,4.15206-5.6693c2.71924-2.25276,4.97538-5.22112,8.87733-5.93426,4.08567-.74674,8.06368-2.65171,12.13113-2.78768,5.62838-.18816,10.67225,2.54987,15.28468,5.64687,9.412,6.31979,10.12719,16.32874,10.89445,26.27614a58.12272,58.12272,0,0,1-2.1034,19.527,20.4805,20.4805,0,0,1-7.46038,10.80916c-5.34316,4.23134-11.45927,6.89416-18.09729,6.54772-8.08975-.42217-15.39221-3.24371-20.73005-10.15932C645.84377,128.80358,645.13673,120.45572,644.47819,108.89464Zm43.77791,3.01905.869-.14834c-1.03354-4.50607-2.11265-9.00236-3.089-13.52071-1.22181-5.65386-5.51462-8.04948-10.4471-9.25329-6.07145-1.48179-13.38456,1.77745-15.24431,6.37976-4.41343,10.922-4.97426,21.99382.06127,32.77178a13.00284,13.00284,0,0,0,6.98443,6.15416,17.53384,17.53384,0,0,0,10.3639-.08016,13.43651,13.43651,0,0,0,7.15049-5.97787C687.45162,123.26829,689.0748,117.76182,688.2561,111.91369Z"/><path class="cls-2" d="M456.00315,111.55938c-.0028-8.39559-.04247-16.79143.01273-25.18665.031-4.71344,2.31189-7.3852,7.02785-7.46807,10.80147-.1898,21.60883-.06809,32.41355-.02577a10.98938,10.98938,0,0,1,3.09979.54079c2.16375.65885,3.80383,1.85925,3.60952,4.43238-.26064,3.45166-1.32906,4.94234-4.27142,5.02354-7.93.21886-15.86643.22954-23.80057.27164-5.45427.02894-5.926.41146-6.0287,5.77131-.042,2.191.05937,4.38556.12442,6.57764.08064,2.71784,1.48969,3.85578,4.22211,3.84017,7.07486-.04041,14.15055.05487,21.22583.10633,2.389.01737,4.01845.99288,4.4837,3.51009.63243,3.4215-1.003,5.7028-4.79082,5.85142-6.30192.24725-12.61646.19262-18.92588.2253-5.14449.02665-6.209.92718-6.3382,6.04957-.07924,3.13875.10437,6.28766.25921,9.42763.1255,2.54492,1.55291,3.71087,4.1149,3.70323,6.50194-.01939,13.00412.02055,19.50606.05745,1.91155.01085,3.8279.01883,5.73289.15544,3.24331.2326,4.43233,1.4879,4.59358,4.65675.13837,2.71854-1.17314,4.20712-4.26385,4.65532a37.0009,37.0009,0,0,1-5.12973.44536q-14.20015.06041-28.40071-.00053a13.01575,13.01575,0,0,1-3.39794-.348c-4.59473-1.27116-5.02175-1.76534-5.05732-6.51321C455.95984,128.73259,456.00592,120.14581,456.00315,111.55938Z"/><path class="cls-2" d="M581.04737,112.48365c0-2.76811-.04531-5.53711.00827-8.30421.18043-9.31159,4.05-16.96072,11.81388-21.89685,5.33574-3.39236,11.47427-6.21413,18.16736-4.73028,7.6096,1.687,14.33707,5.17719,18.982,11.7831,1.78653,2.54075,1.23937,6.89251-.9644,8.29246-2.99157,1.9004-8.17678.86958-9.66748-2.50235-2.9133-6.58975-8.54789-7.13168-15.35744-6.15192-4.63563.667-10.17244,6.93932-10.40207,12.08418-.327,7.32546-1.08912,14.845.13143,21.97541,1.79519,10.48793,10.99286,14.73539,20.91846,10.62772,1.3822-.572,2.34968-2.15207,3.49569-3.27907,1.72538-1.69667,3.39436-3.45321,5.16944-5.096,1.92416-1.7807,4.01435-.52273,5.52986.43318,1.11118.70088,1.86624,2.59764,2.02623,4.04439.44222,3.99887-2.56266,6.42511-4.95064,8.924-4.56021,4.77218-10.64649,6.51805-16.913,7.58005a11.85173,11.85173,0,0,1-8.84758-1.52627,5.37221,5.37221,0,0,0-1.84419-.77089c-7.308-1.51257-10.74918-6.94749-14.25937-12.88165C580.53,125.08106,581.26074,118.79847,581.04737,112.48365Z"/><path class="cls-2" d="M414.38093,116.7037c0-6.298.01448-12.596-.0117-18.89389a28.8372,28.8372,0,0,0-.26244-3.99017c-.536-3.71285-1.08359-4.13856-4.76671-4.21465-2.96255-.0612-5.93021-.09836-8.88378-.3103-3.19642-.22935-4.51192-1.76829-4.58857-5.0291a5.06141,5.06141,0,0,1,4.38158-4.82455,22.07916,22.07916,0,0,1,3.42741-.30237c11.76036.0361,23.52146.05056,35.28.22388a10.77368,10.77368,0,0,1,4.86229,1.42566c.9987.5565,2.22935,2.00753,2.12817,2.92381-.1663,1.50585-1.01693,3.77926-2.13192,4.17383A31.83308,31.83308,0,0,1,434.64888,89.54c-7.92528.33736-8.15025.42969-8.154,8.3337-.00567,12.02341.009,24.04686-.0184,36.07022a48.21916,48.21916,0,0,1-.31048,5.4214,5.865,5.865,0,0,1-5.877,5.1273c-2.36187-.07218-5.675-3.04136-5.70679-5.4652-.09757-7.44-.0355-14.88214-.0355-22.32344Z"/><path class="cls-2" d="M312.28008,111.67319c-.0015,7.53117.10492,15.06479-.06956,22.59193a17.92058,17.92058,0,0,1-1.479,6.30989c-1.22813,2.94382-3.527,3.94932-6.45927,3.32188-2.85355-.61059-3.79513-2.65193-3.82322-5.27529-.07246-6.76713-.13919-13.53473-.13844-20.30214.00123-11.05781.05582-22.11563.09267-33.17343.00885-2.65762.90776-4.66766,3.84938-5.14745,3.3674-.54924,6.19727.81989,7.08668,3.76223a21.64888,21.64888,0,0,1,.90146,5.89142C312.34306,96.99132,312.28159,104.33268,312.28008,111.67319Z"/><path d="M146.73741,180.59633c-12.26863.17665-22.54431-.47893-32.52664-3.63768-6.15153-1.94655-12.57441-3.25418-18.43686-5.83889-6.726-2.96543-13.38749-6.35773-18.70392-11.7313a5.51256,5.51256,0,0,1,1.16359-8.31649c3.93981-2.40243,7.10843-.46639,10.35138,1.35766,3.79719,2.1358,7.44123,4.57065,11.34684,6.478a63.44789,63.44789,0,0,0,10.63591,4.07055c16.45805,4.61948,33.2485,6.73708,50.20206,4.00307,7.91838-1.27694,16.02-2.55941,23.39976-6.29044,4.0438-2.04446,8.36263-3.54229,12.44332-5.52087,2.97869-1.44427,5.728-3.3523,8.662-4.89805,1.8901-.99579,6.11524.32767,7.38013,2.10013,1.11338,1.56014.829,5.42473-.64589,6.987a37.58691,37.58691,0,0,1-13.3896,8.97683c-5.08779,2.07659-10.07033,4.4097-15.102,6.62355a8.214,8.214,0,0,1-1.86346.72316C169.43408,177.71367,157.52773,182.06519,146.73741,180.59633Z"/><path d="M138.21583,94.9299c-.00013-14.4041-.04032-28.80845.04963-43.212.01152-1.84487.15591-4.13725,1.21723-5.4103a9.05168,9.05168,0,0,1,5.42316-2.91343,4.738,4.738,0,0,1,5.10353,3.40413,16.29138,16.29138,0,0,1,.83379,4.74071q.07134,43.49837.03125,86.99693c0,.47683.00184.955-.03071,1.43029-.22737,3.31992-3.228,6.39393-6.24132,6.40387-2.31217.00764-6.10547-3.64574-6.24921-6.2282-.15889-2.85429-.12952-5.72058-.13226-8.58169Q138.20336,113.24509,138.21583,94.9299Z"/><path d="M119.51926,94.92371c.00383,12.8782-.08167,25.7574.06863,38.63385a10.96088,10.96088,0,0,1-2.75533,7.27471c-1.87385,2.33963-5.94452,2.25689-7.29187-.40059-1.25507-2.47546-2.51065-5.30862-2.531-7.99364-.19538-25.75488-.16044-51.51185-.07358-77.26782a15.48353,15.48353,0,0,1,1.46706-5.76975c1.01257-2.38181,3.265-2.63185,5.59157-2.51586,2.10641.105,3.83407.8901,4.42985,2.96192a23.24972,23.24972,0,0,1,1.04423,6.15668C119.56085,68.97618,119.51543,81.9501,119.51926,94.92371Z"/><path d="M182.13941,94.63793c-.0008,13.07171-.07985,26.14425.05943,39.21449a10.91291,10.91291,0,0,1-2.9233,7.22037c-1.7597,2.16949-5.90723,1.89034-7.10214-.63213-1.22951-2.59546-2.51327-5.4999-2.53437-8.27848-.19486-25.66482-.15833-51.3318-.05388-76.9976a15.56957,15.56957,0,0,1,1.64542-6.00618c1.08165-2.41789,3.57063-2.71691,5.68536-2.12263a7.25892,7.25892,0,0,1,4.21516,3.11536c.89634,1.75953.958,4.06088.97045,6.13064C182.17853,69.06677,182.14023,81.85247,182.13941,94.63793Z"/><path d="M213.48856,93.396c-.00291,8.8676.0747,17.73611-.02923,26.60249-.07369,6.28574-3.5542,8.5628-9.38188,6.095a5.80791,5.80791,0,0,1-2.74848-3.19771,15.78361,15.78361,0,0,1-.46634-5.089q-.04872-24.88647-.02949-49.773c-.0001-.66724-.00813-1.33641.0365-2.00141.38276-5.70166,5.04674-8.39982,10.18331-5.76271a4.44616,4.44616,0,0,1,1.95,2.566,18.80989,18.80989,0,0,1,.46985,4.81585C213.5125,76.23281,213.49147,84.81448,213.48856,93.396Z"/><path d="M88.19958,93.37873c0,8.95928.13139,17.92116-.04631,26.87692-.118,5.94468-3.83581,8.25079-9.30684,5.84288a6.71816,6.71816,0,0,1-2.85848-3.45077,11.23658,11.23658,0,0,1-.38673-4.2334q-.03048-25.30584-.00461-50.61177a26.34736,26.34736,0,0,1,.17163-3.137c.45194-3.74086,2.29473-5.318,6.11844-5.30019,4.19544.01957,6.045,1.3717,6.12539,5.42793.18884,9.525.06045,19.05633.06045,28.58509Z"/></svg>