<svg id="Слой_1" data-name="Слой 1" xmlns="http://www.w3.org/2000/svg" viewBox="0 0 1353.28995 499.64894"><defs><style>.cls-1{fill:#fff;}</style></defs><path class="cls-1" d="M821.51921,499.64894c.8301-5.11025-1.68289-7.7555-6.42613-8.91819a64.10431,64.10431,0,0,1-9.57449-2.78788,47.77253,47.77253,0,0,1-8.99493-5.01556c-3.92625-2.77174-8.02852-5.51757-11.25732-9.01046-9.75166-10.54948-19.89-20.86139-22.735-35.96232-.76881-4.08093-4.34676-7.5882-5.38026-11.67537-1.7-6.72284-3.28674-13.69767-3.33492-20.57736-.30164-43.06211-.26048-86.12764-.10221-129.19119.03866-10.50568,1.23243-20.91484,6.92879-30.25556a23.95362,23.95362,0,0,0,2.4678-6.5085c3.42365-13.35731,11.34745-23.84281,20.06068-34.27515,10.77033-12.89538,25.26292-19.57122,39.63554-26.60168,4.35536-2.13043,9.57967-2.73646,14.49221-3.44237,31.05277-4.46218,62.07413-3.29668,93.036,1.01656,11.19426,1.55944,20.49717,7.43177,29.5679,13.65677a5.85955,5.85955,0,0,1,2.22526,3.15482,84.26133,84.26133,0,0,1,.97311,35.10007c-1.43448,7.79826-7.54507,10.80449-15.18979,8.36984-28.33907-9.02522-57.38992-10.35974-86.81346-8.43154-14.78148.96869-26.09034,8.67655-35.93183,18.52626-3.34626,3.34908-4.23833,9.19863-6.0782,13.97235-.95238,2.47092-1.1215,5.301-2.33972,7.60166-5.19059,9.80225-5.50437,20.32846-5.43375,31.04594.195,29.59619-.07086,59.19836.462,88.787.10954,6.08208,2.7431,12.16119,4.49863,18.15836a96.36876,96.36876,0,0,0,5.25322,15.01026,38.21562,38.21562,0,0,0,7.22817,9.59892c15.55627,15.95411,35.44186,13.31562,54.85308,12.31292a102.51858,102.51858,0,0,0,14.32542-1.96318c8.79928-1.72227,14.06079-7.53219,14.26028-16.478.30384-13.62789.39331-27.27892-.10837-40.89509-.15107-4.10051-2.05955-8.41117-4.165-12.0467-1.01977-1.761-4.3228-2.9751-6.64874-3.07131-8.64235-.3575-17.309-.08117-25.96518-.16879-9.96835-.101-17.25734-7.01336-17.54349-16.78817-.20912-7.14415-.13094-14.29925-.06172-21.4483.06892-7.12465,9.49606-17.09812,16.71589-17.139q41.70219-.236,83.40645-.02552c6.22731.02522,14.39378,8.85228,14.68988,15.45414.16381,3.65136.07093,7.31488.067,10.97288-.04494,41.56934-.21851,83.13926-.0125,124.70735.03141,6.34054-3.09048,9.19233-7.75157,12.53-12.56251,8.99542-27.04552,11.33386-41.6763,13.57623-1.80536.2767-3.586.71284-5.37953,1.06791-4.50112.89122-6.876,3.178-5.314,8.0569Z"/><path class="cls-1" d="M80.09846,477.69281c5.60048.61032,8.248-2.42783,10.39552-7.25842,2.45138-5.51415,5.919-10.57795,8.95231-15.83323.24874-.431.70447-.79449.81033-1.24839,2.42155-10.38184,9.40064-18.45439,14.07-27.69429,1.56148-3.09,3.44682-6.0188,5.23476-8.99089.42331-.70364,1.18411-1.21443,1.56424-1.93287,5.25531-9.93267,10.41193-19.9179,15.73112-29.81609,1.70194-3.16705,3.78228-6.1342,5.74746-9.15517.53862-.828,1.483-1.42337,1.90981-2.28855,5.74773-11.65036,12.17062-23.04051,16.92777-35.08547,4.4896-11.36751-1.87852-21.18314-7.4574-30.67811-.49459-.84176-1.49831-1.39208-1.96474-2.24238-5.22719-9.52908-10.36995-19.10431-15.5916-28.63641-2.12916-3.8867-4.41315-7.68849-6.592-11.54845-1.38053-2.44571-2.69569-4.92821-4.04249-7.39295-2.36981-4.33688-4.77947-8.65254-7.10456-13.01319-5.36131-10.055-10.66457-20.14093-16.03036-30.19353-1.47163-2.757-2.62467-5.87116-4.71154-8.0786-6.6807-7.06664-7.37991-16.111-8.8574-24.90406a3.78813,3.78813,0,0,1,1.89246-3.07529c2.87112-1.13983,5.924-2.45107,8.93076-2.5131,12.97991-.26766,25.96912-.189,38.95384-.09041,11.447.08688,16.48318,3.93063,20.3468,14.72032.93342,2.60666,2.59878,4.95874,3.98562,7.39493q2.94081,5.16591,5.97116,10.28088,3.89047,6.58941,7.84152,13.1431c.34084.5675.87772,1.02748,1.16721,1.61431,4.81629,9.76327,9.32746,19.68975,14.49691,29.26182a202.59882,202.59882,0,0,0,12.93036,20.52494c2.37756,3.364,5.00118,2.83464,7.47548-1.04616q4.40049-6.902,8.28213-14.131c5.77556-10.77934,11.3725-21.654,17.07559-32.47233q2.3084-4.3788,4.8233-8.64753c.84035-1.42175,2.08012-2.617,2.85681-4.06578,4.6888-8.746,9.73966-17.33756,13.78682-26.375,3.11509-6.95612,8.359-9.82775,15.21578-9.97083,14.97449-.31247,29.9643-.37453,44.93751-.05508,7.12694.15207,8.89082,3.41654,7.79171,10.42545a35.68647,35.68647,0,0,1-8.24533,18.36527,18.77505,18.77505,0,0,0-2.27,3.85218c-4.79365,9.44786-9.30061,19.05173-14.40257,28.32961-5.47218,9.95112-11.65529,19.51011-17.23092,29.40727-5.11434,9.07835-9.797,18.39845-14.73527,27.57694-5.32811,9.90313-10.61417,19.83235-16.16437,29.611-2.05478,3.62021-2.26352,11.55638-.25821,15.1874,5.98432,10.83586,11.61439,21.86749,17.63788,32.68094,5.062,9.08728,10.55052,17.9366,15.70855,26.97192,2.05029,3.59149,3.54337,7.5004,5.59455,11.09133,5.9916,10.48921,12.17274,20.87023,18.19453,31.34247,1.40131,2.437,2.33779,5.13884,3.71458,7.59206,1.93391,3.44591,4.216,6.6996,6.09616,10.17218,1.87945,3.47128,3.39281,7.13824,5.16841,10.66835,1.54906,3.07975,2.84468,6.40021,4.95091,9.063,4.26335,5.38977,3.15876,10.70416-3.45612,13.01851a30.44186,30.44186,0,0,1-9.74243,1.90333c-12.30752.03308-24.61765-.24682-36.92368-.54033-8.89052-.21213-15.11228-5.47265-19.06789-12.50961-9.55753-17.00283-18.16142-34.53743-27.50606-51.66373-5.218-9.56314-11.19056-18.71362-16.72972-28.105-1.59886-2.7108-2.73275-5.69483-4.32717-8.40864-2.99654-5.10028-6.42125-5.667-9.50166-.88876-4.71471,7.31348-11.35611,13.58827-13.02713,22.68669a10.17823,10.17823,0,0,1-1.74283,4.10057c-8.9915,12.11584-14.19467,26.41752-22.26183,38.94845-6.92264,10.75314-9.73537,24.36-21.16821,32.05064-2.47612,1.66559-5.45953,3.34631-8.31617,3.55412-17.09337,1.24349-34.21289,2.05619-51.261-.84362a44.3651,44.3651,0,0,0-6.48-.1747Z"/><path class="cls-1" d="M1359.09921,499.64894q-.00329-236.26062-.01793-472.52125c-.00073-6.48532-.05172-12.9765-.36653-19.451-.0638-1.3111-1.48151-3.648-2.17921-3.613a6.06529,6.06529,0,0,0-4.34646,2.25021c-1.57408,2.498-2.20543,5.57122-3.65412,8.16882-5.87469,10.53347-11.9066,20.97961-17.9,31.44682-.41032.71683-1.07448,1.29214-1.4626,2.01755-5.61354,10.49109-11.02862,21.09242-16.84365,31.47044-5.3236,9.50151-11.08717,18.75678-16.62252,28.14074-1.25975,2.13565-2.3374,4.37769-3.56862,6.53112-6.31538,11.04694-12.75139,22.02645-18.95443,33.13577-5.4707,9.79756-10.69306,19.73343-16.01886,29.61156-1.17766,2.18407-2.02881,4.61887-3.54227,6.53495-9.24607,11.70619-9.40135,21.55093-.64232,33.48591,2.037,2.77561,3.26893,6.13271,4.94511,9.18185q8.47794,15.42277,17.02149,30.80951c.56279,1.01421,1.39857,1.88153,1.92782,2.90935,5.44667,10.57793,10.84284,21.1818,16.29013,31.75942.83089,1.61335,1.8728,3.117,2.77822,4.69377q3.42688,5.96889,6.81731,11.95871c2.12041,3.73128,3.89881,7.71253,6.426,11.14433,3.90881,5.30806,4.546,11.28379.77551,16.49277a5.65661,5.65661,0,0,1-3.65327,2.12865c-16.915,1.27879-33.85075,2.57143-50.6833-.83336-1.56641-.31684-3.57216-.84514-4.41123-1.98319q-7.927-10.75284-15.34568-21.87569c-2.27812-3.42952-3.95321-7.2557-5.96018-10.86967-.56109-1.01018-1.46517-1.83714-1.983-2.86338-5.21-10.3291-10.35971-20.68864-15.56279-31.02124-.74405-1.47755-1.68838-2.85407-2.53135-4.28252-2.49561-4.22922-5.009-8.44814-7.461-12.70249-.49266-.85477-.633-1.91192-1.12583-2.76666-5.652-9.8063-10.96177-19.83676-17.11627-29.31968a33.96454,33.96454,0,0,1,.5084-37.95157c2.48207-3.69351,4.42684-7.74246,6.758-11.54271,6.20329-10.11294,10.13393-21.58713,18.31382-30.51652a4.7926,4.7926,0,0,0,1.19767-1.57909,79.9756,79.9756,0,0,1,12.82982-24.409c3.50129-4.71682,5.92286-10.24044,8.75342-15.44306,1.18584-2.17959,2.081-4.51749,3.27759-6.69045,1.82609-3.3161,3.78122-6.56213,5.72355-9.81291.4224-.707,1.135-1.24783,1.523-1.96781,5.33592-9.89826,10.45363-19.919,15.99934-29.69789,5.9114-10.42374,12.22873-20.61756,18.34663-30.925,1.09558-1.84581,2.10432-3.74431,3.116-5.63821,1.78913-3.34913,3.71365-6.64074,5.25334-10.102.75661-1.70108,1.42308-3.941.897-5.52975-.328-.991-2.93655-1.62731-4.56077-1.71686-4.81667-.26555-9.65285-.22683-14.48136-.22694Q673.84073-4.34519,80.09846-4.344c.1664-.33267.31539-.94193.502-.95364,1.32668-.08327,2.661-.04437,3.993-.04437h1275.505V.28709q0,247.43633-.04147,494.87265A21.63917,21.63917,0,0,1,1359.09921,499.64894Z"/><path class="cls-1" d="M544.904,315.39105c-.40541,5.09623-1.14757,10.15309-1.1573,15.21131-.0934,48.55833-.17964,97.11749.06873,145.6747a18.06568,18.06568,0,0,1-7.12026,15.03877c-1.21523,1.0068-2.897,2.09667-4.34755,2.07392-12.12164-.1899-24.29828-.02723-36.33834-1.19973-8.61659-.83911-11.21091-4.86113-11.21353-13.59828-.0283-94.6226-.25218-189.24624.17827-283.86686.0787-17.29992,1.23274-17.97114,18.37724-18.64251,9.30956-.36458,18.64565-.11965,27.969-.04917,12.501.09447,15.10185,2.46928,20.38081,13.56021,5.4453,11.4404,12.00917,22.34969,18.08685,33.48963.15875.291.38425.54746.52834.84437,5.25843,10.835,10.34951,21.75487,15.81055,32.48692,5.243,10.30363,10.898,20.39756,16.30931,30.61674,1.78443,3.36991,3.27972,6.89272,5.0694,10.25965,5.98465,11.25887,12.14012,22.42817,18.02693,33.73733,2.52653,4.85371,4.403,10.04192,6.85207,14.93984,2.18506,4.37,3.971,4.47778,7.65973,1.3,4.14983-3.57492,4.4008-8.42125,4.44617-13.242.13466-14.30038.1099-28.60243.11576-42.90381.0128-31.43-.03684-62.86014.06873-94.28978A40.66484,40.66484,0,0,1,646.08474,186.54c1.96892-7.33259,7.40071-11.02948,15.07477-10.88707q12.97991.24083,25.9622.34955c12.59331.11776,17.46664,4.69648,18.27417,17.29845.10624,1.65708.06245,3.32472.06251,4.98746q.00366,138.94038.00067,277.88074c-.00024,8.86443-6.71874,17.04017-15.64494,17.183-12.77.2043-25.55852-.77613-38.33967-1.236-4.65079-.16736-7.64149-2.95845-10.09118-6.46459a116.25856,116.25856,0,0,1-7.93783-12.02343c-4.94267-9.37492-9.40781-18.99964-14.22625-28.44177-2.32-4.54627-4.9853-8.91769-7.52537-13.35043-.65958-1.151-1.5725-2.17052-2.13779-3.3601-4.53662-9.5463-8.7669-19.24691-13.58009-28.65058-5.868-11.46443-12.37925-22.59946-18.301-34.0377-5.54666-10.7137-10.754-21.6052-15.97169-32.48495-1.97239-4.11272-4.08835-7.65088-8.51754-9.91777C550.17386,321.84331,548.06247,318.54667,544.904,315.39105Z"/><path class="cls-1" d="M427.90741,336.47609q-.00045,70.60469-.05363,141.20929a26.03179,26.03179,0,0,1-1.28272,8.256c-1.39546,4.07858-4.324,6.57174-8.96883,6.6315-11.96352.15386-23.93287.71076-35.88627.45968-6.62562-.13919-11.31592-5.74359-11.63541-12.56233-.18662-3.98334-.05912-7.9817-.05919-11.97333q-.00215-135.22176.06182-270.44344a95.42654,95.42654,0,0,1,1.47379-14.84162c.714-4.47732,3.63784-7.10162,8.28287-7.11149,12.98262-.02758,25.96555.08682,38.94833.1563,5.04217.027,7.66469,2.714,8.1067,7.59722.404,4.46355.96253,8.93824.96933,13.40874Q427.97028,266.86923,427.90741,336.47609Z"/><path class="cls-1" d="M1117.58307,63.48911c5.162,0,10.36275.40588,15.4779-.08322,11.17522-1.06856,17.24507,5.802,22.13212,14.03475,5.39666,9.09093,9.9889,18.65434,15.18845,27.8673,2.651,4.69741,6.5697,8.773,8.6895,13.66012,5.86224,13.51483,3.35468,25.83887-6.70887,36.668a15.43246,15.43246,0,0,0-2.69357,4.70925c-2.31265,5.6898-4.17387,11.62068-9.32963,15.60777a1.19918,1.19918,0,0,0-.30042.39615c-4.93938,9.4922-9.76166,19.0475-14.84631,28.46149-4.23656,7.844-8.23783,15.90539-13.36347,23.15062-3.97431,5.61789-11.19559,6.62251-17.54915,6.92414-12.62673.59945-25.30268.273-37.95655.14945-6.32752-.0618-11.606-6.94075-9.42764-12.802,1.86512-5.01872,4.8515-9.62373,7.3665-14.39884,1.54177-2.92739,3.03279-5.88764,4.71452-8.73418,5.87883-9.95036,12.06089-19.72951,17.6901-29.81734,5.69806-10.21115,11.87256-20.34986,15.83858-31.24636,1.82877-5.02437-.05611-12.1776-2.13981-17.6505-2.79579-7.343-7.335-14.0393-11.27708-20.92674-3.26625-5.70648-7.00624-11.15531-10.04239-16.97533-1.74509-3.34527-2.32453-7.27669-3.76969-10.80489-1.15877-2.82878-.32177-4.6929,2.27782-5.51461a48.13592,48.13592,0,0,1,11.05417-2.59014c6.29927-.42073,12.64734-.11542,18.97492-.11542Z"/></svg>