<svg width="200" height="120" viewBox="0 0 200 120" fill="none" xmlns="http://www.w3.org/2000/svg">
<g clip-path="url(#clip0)">
<g filter="url(#filter0_d)">
<path d="M9 17H49.0833L58.3333 26.25V83.2917H9V17Z" fill="white"/>
<path d="M49.0835 17L58.3335 26.25H49.0835V17Z" fill="#E8E8E8"/>
</g>
<path d="M24.8201 66.23V69.2915H23.7888V61.4712H26.6731C27.5289 61.4712 28.1985 61.6896 28.6819 62.1265C29.1689 62.5633 29.4124 63.1416 29.4124 63.8613C29.4124 64.6204 29.1742 65.2059 28.698 65.6177C28.2253 66.0259 27.5468 66.23 26.6624 66.23H24.8201ZM24.8201 65.3867H26.6731C27.2245 65.3867 27.6471 65.2578 27.9407 65C28.2343 64.7386 28.3811 64.3626 28.3811 63.8721C28.3811 63.4066 28.2343 63.0342 27.9407 62.7549C27.6471 62.4756 27.2442 62.3306 26.7322 62.3198H24.8201V65.3867ZM36.7385 69.2915H35.7019L31.7649 63.2651V69.2915H30.7283V61.4712H31.7649L35.7126 67.5244V61.4712H36.7385V69.2915ZM44.344 68.2656C44.079 68.6452 43.7084 68.9299 43.2322 69.1196C42.7595 69.3058 42.2081 69.3989 41.5779 69.3989C40.9405 69.3989 40.3748 69.2503 39.8806 68.9531C39.3865 68.6523 39.0033 68.2262 38.7312 67.6748C38.4626 67.1234 38.3248 66.4842 38.3176 65.7573V65.0752C38.3176 63.8971 38.5916 62.984 39.1394 62.3359C39.6908 61.6878 40.4643 61.3638 41.4597 61.3638C42.2761 61.3638 42.9332 61.5732 43.4309 61.9922C43.9286 62.4076 44.233 62.9984 44.344 63.7646H43.3127C43.1194 62.7298 42.5035 62.2124 41.4651 62.2124C40.774 62.2124 40.2494 62.4559 39.8914 62.9429C39.5369 63.4263 39.3578 64.1281 39.3542 65.0483V65.6875C39.3542 66.5648 39.5548 67.263 39.9558 67.7822C40.3569 68.2979 40.8993 68.5557 41.5833 68.5557C41.97 68.5557 42.3083 68.5127 42.5984 68.4268C42.8884 68.3408 43.1283 68.1958 43.3181 67.9917V66.2354H41.5081V65.3975H44.344V68.2656Z" fill="#514EFF"/>
<g filter="url(#filter1_d)">
<path d="M96 18H136.083L145.333 27.25V84.2917H96V18Z" fill="white"/>
<path d="M136.083 18L145.333 27.25H136.083V18Z" fill="#E8E8E8"/>
</g>
<path d="M117.623 67.5186C117.526 68.3457 117.22 68.9849 116.704 69.436C116.192 69.8836 115.51 70.1074 114.658 70.1074C113.734 70.1074 112.993 69.7762 112.434 69.1138C111.879 68.4513 111.602 67.5651 111.602 66.4551V65.7031C111.602 64.9762 111.73 64.3371 111.988 63.7856C112.25 63.2342 112.618 62.8117 113.095 62.5181C113.571 62.2209 114.122 62.0723 114.749 62.0723C115.58 62.0723 116.246 62.305 116.747 62.7705C117.248 63.2324 117.54 63.8734 117.623 64.6934H116.586C116.496 64.0703 116.301 63.6191 116 63.3398C115.703 63.0605 115.286 62.9209 114.749 62.9209C114.09 62.9209 113.573 63.1644 113.197 63.6514C112.824 64.1383 112.638 64.8312 112.638 65.73V66.4873C112.638 67.3359 112.815 68.0109 113.17 68.5122C113.524 69.0135 114.02 69.2642 114.658 69.2642C115.231 69.2642 115.669 69.1353 115.974 68.8774C116.282 68.616 116.486 68.1631 116.586 67.5186H117.623ZM121.339 66.5142C120.455 66.2599 119.81 65.9484 119.406 65.5796C119.005 65.2072 118.804 64.7489 118.804 64.2046C118.804 63.5887 119.049 63.0802 119.54 62.6792C120.034 62.2746 120.675 62.0723 121.463 62.0723C122 62.0723 122.478 62.1761 122.897 62.3838C123.319 62.5915 123.645 62.8779 123.875 63.2432C124.107 63.6084 124.224 64.0076 124.224 64.4409H123.187C123.187 63.9683 123.037 63.5977 122.736 63.3291C122.435 63.057 122.011 62.9209 121.463 62.9209C120.954 62.9209 120.557 63.0337 120.271 63.2593C119.988 63.4813 119.846 63.791 119.846 64.1885C119.846 64.5072 119.98 64.7775 120.249 64.9995C120.521 65.2179 120.981 65.4185 121.629 65.6011C122.281 65.7837 122.79 65.986 123.155 66.208C123.524 66.4264 123.796 66.6825 123.971 66.9761C124.15 67.2697 124.24 67.6152 124.24 68.0127C124.24 68.6465 123.993 69.1549 123.499 69.5381C123.004 69.9176 122.344 70.1074 121.517 70.1074C120.979 70.1074 120.478 70.0054 120.013 69.8013C119.547 69.5936 119.187 69.3107 118.933 68.9526C118.682 68.5946 118.557 68.1882 118.557 67.7334H119.594C119.594 68.2061 119.767 68.5802 120.115 68.856C120.466 69.1281 120.933 69.2642 121.517 69.2642C122.061 69.2642 122.478 69.1532 122.768 68.9312C123.058 68.7091 123.203 68.4066 123.203 68.0234C123.203 67.6403 123.069 67.3449 122.8 67.1372C122.532 66.9259 122.045 66.7183 121.339 66.5142ZM128.155 68.6304L130.39 62.1797H131.518L128.617 70H127.704L124.809 62.1797H125.932L128.155 68.6304Z" fill="#6B6B6B"/>
<path d="M116.31 42.2895H111.354C110.963 42.2895 110.646 41.9725 110.646 41.5818V38.7496C110.646 38.3589 110.963 38.0415 111.354 38.0415H116.31C116.701 38.0415 117.018 38.3589 117.018 38.7496V41.5818C117.018 41.9725 116.701 42.2895 116.31 42.2895ZM112.062 40.8737H115.602V39.4576H112.062V40.8737Z" fill="#C1C1C1"/>
<path d="M121.266 42.2895H116.31C115.919 42.2895 115.602 41.9725 115.602 41.5818V38.7496C115.602 38.3589 115.919 38.0415 116.31 38.0415H121.266C121.657 38.0415 121.974 38.3589 121.974 38.7496V41.5818C121.974 41.9725 121.657 42.2895 121.266 42.2895ZM117.018 40.8737H120.558V39.4576H117.018V40.8737Z" fill="#C1C1C1"/>
<path d="M126.222 42.2895H121.266C120.875 42.2895 120.558 41.9725 120.558 41.5818V38.7496C120.558 38.3589 120.875 38.0415 121.266 38.0415H126.222C126.613 38.0415 126.93 38.3589 126.93 38.7496V41.5818C126.93 41.9725 126.613 42.2895 126.222 42.2895ZM121.974 40.8737H125.514V39.4576H121.974V40.8737Z" fill="#C1C1C1"/>
<path d="M131.178 42.2895H126.222C125.831 42.2895 125.514 41.9725 125.514 41.5818V38.7496C125.514 38.3589 125.831 38.0415 126.222 38.0415H131.178C131.569 38.0415 131.886 38.3589 131.886 38.7496V41.5818C131.886 41.9725 131.569 42.2895 131.178 42.2895ZM126.93 40.8737H130.47V39.4576H126.93V40.8737Z" fill="#C1C1C1"/>
<path d="M116.31 45.1217H111.354C110.963 45.1217 110.646 44.8044 110.646 44.4137V41.5818C110.646 41.1908 110.963 40.8737 111.354 40.8737H116.31C116.701 40.8737 117.018 41.1908 117.018 41.5818V44.4137C117.018 44.8044 116.701 45.1217 116.31 45.1217ZM112.062 43.7056H115.602V42.2895H112.062V43.7056Z" fill="#C1C1C1"/>
<path d="M121.266 45.1217H116.31C115.919 45.1217 115.602 44.8044 115.602 44.4137V41.5818C115.602 41.1908 115.919 40.8737 116.31 40.8737H121.266C121.657 40.8737 121.974 41.1908 121.974 41.5818V44.4137C121.974 44.8044 121.657 45.1217 121.266 45.1217ZM117.018 43.7056H120.558V42.2895H117.018V43.7056Z" fill="#C1C1C1"/>
<path d="M126.222 45.1217H121.266C120.875 45.1217 120.558 44.8044 120.558 44.4137V41.5818C120.558 41.1908 120.875 40.8737 121.266 40.8737H126.222C126.613 40.8737 126.93 41.1908 126.93 41.5818V44.4137C126.93 44.8044 126.613 45.1217 126.222 45.1217ZM121.974 43.7056H125.514V42.2895H121.974V43.7056Z" fill="#C1C1C1"/>
<path d="M131.178 45.1217H126.222C125.831 45.1217 125.514 44.8044 125.514 44.4137V41.5818C125.514 41.1908 125.831 40.8737 126.222 40.8737H131.178C131.569 40.8737 131.886 41.1908 131.886 41.5818V44.4137C131.886 44.8044 131.569 45.1217 131.178 45.1217ZM126.93 43.7056H130.47V42.2895H126.93V43.7056Z" fill="#C1C1C1"/>
<path d="M116.31 47.9536H111.354C110.963 47.9536 110.646 47.6366 110.646 47.2456V44.4137C110.646 44.023 110.963 43.7056 111.354 43.7056H116.31C116.701 43.7056 117.018 44.023 117.018 44.4137V47.2456C117.018 47.6366 116.701 47.9536 116.31 47.9536ZM112.062 46.5378H115.602V45.1217H112.062V46.5378Z" fill="#C1C1C1"/>
<path d="M121.266 47.9536H116.31C115.919 47.9536 115.602 47.6366 115.602 47.2456V44.4137C115.602 44.023 115.919 43.7056 116.31 43.7056H121.266C121.657 43.7056 121.974 44.023 121.974 44.4137V47.2456C121.974 47.6366 121.657 47.9536 121.266 47.9536ZM117.018 46.5378H120.558V45.1217H117.018V46.5378Z" fill="#C1C1C1"/>
<path d="M126.222 47.9536H121.266C120.875 47.9536 120.558 47.6366 120.558 47.2456V44.4137C120.558 44.023 120.875 43.7056 121.266 43.7056H126.222C126.613 43.7056 126.93 44.023 126.93 44.4137V47.2456C126.93 47.6366 126.613 47.9536 126.222 47.9536ZM121.974 46.5378H125.514V45.1217H121.974V46.5378Z" fill="#C1C1C1"/>
<path d="M131.178 47.9536H126.222C125.831 47.9536 125.514 47.6366 125.514 47.2456V44.4137C125.514 44.023 125.831 43.7056 126.222 43.7056H131.178C131.569 43.7056 131.886 44.023 131.886 44.4137V47.2456C131.886 47.6366 131.569 47.9536 131.178 47.9536ZM126.93 46.5378H130.47V45.1217H126.93V46.5378Z" fill="#C1C1C1"/>
<path d="M116.31 50.7859H111.354C110.963 50.7859 110.646 50.4685 110.646 50.0778V47.2456C110.646 46.8549 110.963 46.5378 111.354 46.5378H116.31C116.701 46.5378 117.018 46.8549 117.018 47.2456V50.0778C117.018 50.4685 116.701 50.7859 116.31 50.7859ZM112.062 49.3697H115.602V47.9536H112.062V49.3697Z" fill="#C1C1C1"/>
<path d="M121.266 50.7859H116.31C115.919 50.7859 115.602 50.4685 115.602 50.0778V47.2456C115.602 46.8549 115.919 46.5378 116.31 46.5378H121.266C121.657 46.5378 121.974 46.8549 121.974 47.2456V50.0778C121.974 50.4685 121.657 50.7859 121.266 50.7859ZM117.018 49.3697H120.558V47.9536H117.018V49.3697Z" fill="#C1C1C1"/>
<path d="M126.222 50.7859H121.266C120.875 50.7859 120.558 50.4685 120.558 50.0778V47.2456C120.558 46.8549 120.875 46.5378 121.266 46.5378H126.222C126.613 46.5378 126.93 46.8549 126.93 47.2456V50.0778C126.93 50.4685 126.613 50.7859 126.222 50.7859ZM121.974 49.3697H125.514V47.9536H121.974V49.3697Z" fill="#C1C1C1"/>
<path d="M131.178 50.7859H126.222C125.831 50.7859 125.514 50.4685 125.514 50.0778V47.2456C125.514 46.8549 125.831 46.5378 126.222 46.5378H131.178C131.569 46.5378 131.886 46.8549 131.886 47.2456V50.0778C131.886 50.4685 131.569 50.7859 131.178 50.7859ZM126.93 49.3697H130.47V47.9536H126.93V49.3697Z" fill="#C1C1C1"/>
<path d="M116.31 53.6178H111.354C110.963 53.6178 110.646 53.3007 110.646 52.9097V50.0778C110.646 49.6868 110.963 49.3697 111.354 49.3697H116.31C116.701 49.3697 117.018 49.6868 117.018 50.0778V52.9097C117.018 53.3007 116.701 53.6178 116.31 53.6178ZM112.062 52.2016H115.602V50.7859H112.062V52.2016Z" fill="#C1C1C1"/>
<path d="M121.266 53.6178H116.31C115.919 53.6178 115.602 53.3007 115.602 52.9097V50.0778C115.602 49.6868 115.919 49.3697 116.31 49.3697H121.266C121.657 49.3697 121.974 49.6868 121.974 50.0778V52.9097C121.974 53.3007 121.657 53.6178 121.266 53.6178ZM117.018 52.2016H120.558V50.7859H117.018V52.2016Z" fill="#C1C1C1"/>
<path d="M126.222 53.6178H121.266C120.875 53.6178 120.558 53.3007 120.558 52.9097V50.0778C120.558 49.6868 120.875 49.3697 121.266 49.3697H126.222C126.613 49.3697 126.93 49.6868 126.93 50.0778V52.9097C126.93 53.3007 126.613 53.6178 126.222 53.6178ZM121.974 52.2016H125.514V50.7859H121.974V52.2016Z" fill="#C1C1C1"/>
<path d="M131.178 53.6178H126.222C125.831 53.6178 125.514 53.3007 125.514 52.9097V50.0778C125.514 49.6868 125.831 49.3697 126.222 49.3697H131.178C131.569 49.3697 131.886 49.6868 131.886 50.0778V52.9097C131.886 53.3007 131.569 53.6178 131.178 53.6178ZM126.93 52.2016H130.47V50.7859H126.93V52.2016Z" fill="#C1C1C1"/>
<g filter="url(#filter2_d)">
<path d="M51.9792 35.7085H92.0626L101.313 44.9585V102H51.9792V35.7085Z" fill="white"/>
<path d="M92.0625 35.7085L101.312 44.9585H92.0625V35.7085Z" fill="#E8E8E8"/>
</g>
<g filter="url(#filter3_d)">
<path d="M141 35.7085H181.083L190.333 44.9585V102H141V35.7085Z" fill="white"/>
<path d="M181.083 35.7085L190.333 44.9585H181.083V35.7085Z" fill="#E8E8E8"/>
</g>
<path d="M160.664 57.248H155.708C155.317 57.248 155 56.931 155 56.5403V53.7081C155 53.3174 155.317 53 155.708 53H160.664C161.055 53 161.372 53.3174 161.372 53.7081V56.5403C161.372 56.931 161.055 57.248 160.664 57.248ZM156.416 55.8322H159.956V54.4161H156.416V55.8322Z" fill="#00B97C"/>
<path d="M165.62 57.248H160.664C160.273 57.248 159.956 56.931 159.956 56.5403V53.7081C159.956 53.3174 160.273 53 160.664 53H165.62C166.011 53 166.328 53.3174 166.328 53.7081V56.5403C166.328 56.931 166.011 57.248 165.62 57.248ZM161.372 55.8322H164.912V54.4161H161.372V55.8322Z" fill="#00B97C"/>
<path d="M170.576 57.248H165.62C165.23 57.248 164.912 56.931 164.912 56.5403V53.7081C164.912 53.3174 165.23 53 165.62 53H170.576C170.967 53 171.284 53.3174 171.284 53.7081V56.5403C171.284 56.931 170.967 57.248 170.576 57.248ZM166.328 55.8322H169.868V54.4161H166.328V55.8322Z" fill="#00B97C"/>
<path d="M175.532 57.248H170.576C170.186 57.248 169.868 56.931 169.868 56.5403V53.7081C169.868 53.3174 170.186 53 170.576 53H175.532C175.923 53 176.24 53.3174 176.24 53.7081V56.5403C176.24 56.931 175.923 57.248 175.532 57.248ZM171.284 55.8322H174.824V54.4161H171.284V55.8322Z" fill="#00B97C"/>
<path d="M160.664 60.0802H155.708C155.317 60.0802 155 59.7629 155 59.3722V56.5403C155 56.1493 155.317 55.8322 155.708 55.8322H160.664C161.055 55.8322 161.372 56.1493 161.372 56.5403V59.3722C161.372 59.7629 161.055 60.0802 160.664 60.0802ZM156.416 58.6641H159.956V57.248H156.416V58.6641Z" fill="#00B97C"/>
<path d="M165.62 60.0802H160.664C160.273 60.0802 159.956 59.7629 159.956 59.3722V56.5403C159.956 56.1493 160.273 55.8322 160.664 55.8322H165.62C166.011 55.8322 166.328 56.1493 166.328 56.5403V59.3722C166.328 59.7629 166.011 60.0802 165.62 60.0802ZM161.372 58.6641H164.912V57.248H161.372V58.6641Z" fill="#00B97C"/>
<path d="M170.576 60.0802H165.62C165.23 60.0802 164.912 59.7629 164.912 59.3722V56.5403C164.912 56.1493 165.23 55.8322 165.62 55.8322H170.576C170.967 55.8322 171.284 56.1493 171.284 56.5403V59.3722C171.284 59.7629 170.967 60.0802 170.576 60.0802ZM166.328 58.6641H169.868V57.248H166.328V58.6641Z" fill="#00B97C"/>
<path d="M175.532 60.0802H170.576C170.186 60.0802 169.868 59.7629 169.868 59.3722V56.5403C169.868 56.1493 170.186 55.8322 170.576 55.8322H175.532C175.923 55.8322 176.24 56.1493 176.24 56.5403V59.3722C176.24 59.7629 175.923 60.0802 175.532 60.0802ZM171.284 58.6641H174.824V57.248H171.284V58.6641Z" fill="#00B97C"/>
<path d="M160.664 62.9121H155.708C155.317 62.9121 155 62.5951 155 62.2041V59.3722C155 58.9815 155.317 58.6641 155.708 58.6641H160.664C161.055 58.6641 161.372 58.9815 161.372 59.3722V62.2041C161.372 62.5951 161.055 62.9121 160.664 62.9121ZM156.416 61.4963H159.956V60.0802H156.416V61.4963Z" fill="#00B97C"/>
<path d="M165.62 62.9121H160.664C160.273 62.9121 159.956 62.5951 159.956 62.2041V59.3722C159.956 58.9815 160.273 58.6641 160.664 58.6641H165.62C166.011 58.6641 166.328 58.9815 166.328 59.3722V62.2041C166.328 62.5951 166.011 62.9121 165.62 62.9121ZM161.372 61.4963H164.912V60.0802H161.372V61.4963Z" fill="#00B97C"/>
<path d="M170.576 62.9121H165.62C165.23 62.9121 164.912 62.5951 164.912 62.2041V59.3722C164.912 58.9815 165.23 58.6641 165.62 58.6641H170.576C170.967 58.6641 171.284 58.9815 171.284 59.3722V62.2041C171.284 62.5951 170.967 62.9121 170.576 62.9121ZM166.328 61.4963H169.868V60.0802H166.328V61.4963Z" fill="#00B97C"/>
<path d="M175.532 62.9121H170.576C170.186 62.9121 169.868 62.5951 169.868 62.2041V59.3722C169.868 58.9815 170.186 58.6641 170.576 58.6641H175.532C175.923 58.6641 176.24 58.9815 176.24 59.3722V62.2041C176.24 62.5951 175.923 62.9121 175.532 62.9121ZM171.284 61.4963H174.824V60.0802H171.284V61.4963Z" fill="#00B97C"/>
<path d="M160.664 65.7443H155.708C155.317 65.7443 155 65.427 155 65.0363V62.2041C155 61.8134 155.317 61.4963 155.708 61.4963H160.664C161.055 61.4963 161.372 61.8134 161.372 62.2041V65.0363C161.372 65.427 161.055 65.7443 160.664 65.7443ZM156.416 64.3282H159.956V62.9121H156.416V64.3282Z" fill="#00B97C"/>
<path d="M165.62 65.7443H160.664C160.273 65.7443 159.956 65.427 159.956 65.0363V62.2041C159.956 61.8134 160.273 61.4963 160.664 61.4963H165.62C166.011 61.4963 166.328 61.8134 166.328 62.2041V65.0363C166.328 65.427 166.011 65.7443 165.62 65.7443ZM161.372 64.3282H164.912V62.9121H161.372V64.3282Z" fill="#00B97C"/>
<path d="M170.576 65.7443H165.62C165.23 65.7443 164.912 65.427 164.912 65.0363V62.2041C164.912 61.8134 165.23 61.4963 165.62 61.4963H170.576C170.967 61.4963 171.284 61.8134 171.284 62.2041V65.0363C171.284 65.427 170.967 65.7443 170.576 65.7443ZM166.328 64.3282H169.868V62.9121H166.328V64.3282Z" fill="#00B97C"/>
<path d="M175.532 65.7443H170.576C170.186 65.7443 169.868 65.427 169.868 65.0363V62.2041C169.868 61.8134 170.186 61.4963 170.576 61.4963H175.532C175.923 61.4963 176.24 61.8134 176.24 62.2041V65.0363C176.24 65.427 175.923 65.7443 175.532 65.7443ZM171.284 64.3282H174.824V62.9121H171.284V64.3282Z" fill="#00B97C"/>
<path d="M160.664 68.5763H155.708C155.317 68.5763 155 68.2592 155 67.8682V65.0363C155 64.6453 155.317 64.3282 155.708 64.3282H160.664C161.055 64.3282 161.372 64.6453 161.372 65.0363V67.8682C161.372 68.2592 161.055 68.5763 160.664 68.5763ZM156.416 67.1601H159.956V65.7443H156.416V67.1601Z" fill="#00B97C"/>
<path d="M165.62 68.5763H160.664C160.273 68.5763 159.956 68.2592 159.956 67.8682V65.0363C159.956 64.6453 160.273 64.3282 160.664 64.3282H165.62C166.011 64.3282 166.328 64.6453 166.328 65.0363V67.8682C166.328 68.2592 166.011 68.5763 165.62 68.5763ZM161.372 67.1601H164.912V65.7443H161.372V67.1601Z" fill="#00B97C"/>
<path d="M170.576 68.5763H165.62C165.23 68.5763 164.912 68.2592 164.912 67.8682V65.0363C164.912 64.6453 165.23 64.3282 165.62 64.3282H170.576C170.967 64.3282 171.284 64.6453 171.284 65.0363V67.8682C171.284 68.2592 170.967 68.5763 170.576 68.5763ZM166.328 67.1601H169.868V65.7443H166.328V67.1601Z" fill="#00B97C"/>
<path d="M175.532 68.5763H170.576C170.186 68.5763 169.868 68.2592 169.868 67.8682V65.0363C169.868 64.6453 170.186 64.3282 170.576 64.3282H175.532C175.923 64.3282 176.24 64.6453 176.24 65.0363V67.8682C176.24 68.2592 175.923 68.5763 175.532 68.5763ZM171.284 67.1601H174.824V65.7443H171.284V67.1601Z" fill="#00B97C"/>
<path d="M68.8198 84.9385V88H67.7886V80.1797H70.6729C71.5286 80.1797 72.1982 80.3981 72.6816 80.835C73.1686 81.2718 73.4121 81.8501 73.4121 82.5698C73.4121 83.3289 73.174 83.9144 72.6978 84.3262C72.2251 84.7344 71.5465 84.9385 70.6621 84.9385H68.8198ZM68.8198 84.0952H70.6729C71.2243 84.0952 71.6468 83.9663 71.9404 83.7085C72.234 83.4471 72.3809 83.0711 72.3809 82.5806C72.3809 82.1151 72.234 81.7427 71.9404 81.4634C71.6468 81.1841 71.244 81.0391 70.7319 81.0283H68.8198V84.0952ZM74.728 88V80.1797H76.9355C77.6159 80.1797 78.2174 80.3301 78.7402 80.6309C79.263 80.9316 79.6659 81.3595 79.9487 81.9146C80.2352 82.4696 80.3802 83.1069 80.3838 83.8267V84.3262C80.3838 85.0638 80.2406 85.7101 79.9541 86.2651C79.6712 86.8201 79.2648 87.2463 78.7349 87.5435C78.2085 87.8407 77.5944 87.9928 76.8926 88H74.728ZM75.7593 81.0283V87.1567H76.8442C77.6392 87.1567 78.2568 86.9097 78.6973 86.4155C79.1413 85.9214 79.3633 85.2178 79.3633 84.3047V83.8481C79.3633 82.9601 79.1538 82.2708 78.7349 81.7803C78.3195 81.2861 77.7287 81.0355 76.9624 81.0283H75.7593ZM86.2598 84.5464H82.978V88H81.9468V80.1797H86.7915V81.0283H82.978V83.7031H86.2598V84.5464Z" fill="#CC4B4C"/>
<path d="M156.142 83.7139H153.061V86.2334H156.64V87H152.123V79.8906H156.591V80.6621H153.061V82.9473H156.142V83.7139ZM160.126 82.6152L161.83 79.8906H162.934L160.688 83.416L162.987 87H161.874L160.126 84.2266L158.368 87H157.26L159.564 83.416L157.313 79.8906H158.412L160.126 82.6152ZM169.179 84.7441C169.091 85.4961 168.812 86.0771 168.344 86.4873C167.878 86.8942 167.258 87.0977 166.483 87.0977C165.644 87.0977 164.97 86.7965 164.462 86.1943C163.957 85.5921 163.705 84.7865 163.705 83.7773V83.0938C163.705 82.4329 163.822 81.8519 164.057 81.3506C164.294 80.8493 164.63 80.4652 165.062 80.1982C165.495 79.9281 165.997 79.793 166.566 79.793C167.322 79.793 167.927 80.0046 168.383 80.4277C168.839 80.8477 169.104 81.4303 169.179 82.1758H168.236C168.155 81.6094 167.978 81.1992 167.704 80.9453C167.434 80.6914 167.055 80.5645 166.566 80.5645C165.967 80.5645 165.497 80.7858 165.155 81.2285C164.817 81.6712 164.647 82.3011 164.647 83.1182V83.8066C164.647 84.5781 164.809 85.1917 165.131 85.6475C165.453 86.1032 165.904 86.3311 166.483 86.3311C167.004 86.3311 167.403 86.2139 167.68 85.9795C167.96 85.7419 168.145 85.3301 168.236 84.7441H169.179ZM174.481 83.7139H171.4V86.2334H174.979V87H170.463V79.8906H174.931V80.6621H171.4V82.9473H174.481V83.7139ZM177.089 86.2334H180.458V87H176.146V79.8906H177.089V86.2334Z" fill="#00B97C"/>
<path d="M69.0115 71.4873C68.7432 71.4873 68.4858 71.4002 68.2661 71.236C67.4637 70.634 67.3557 69.9642 67.4066 69.5078C67.5469 68.2529 69.0986 66.9394 72.02 65.6012C73.1794 63.0606 74.2824 59.9302 74.94 57.3148C74.1707 55.6405 73.423 53.4683 73.9679 52.1941C74.1591 51.7478 74.3973 51.4056 74.8421 51.2576C75.0178 51.199 75.4618 51.125 75.6252 51.125C76.0137 51.125 76.3552 51.6253 76.5973 51.9336C76.8247 52.2234 77.3403 52.8378 76.3097 57.1768C77.3488 59.3228 78.8211 61.5089 80.2317 63.0059C81.2423 62.8232 82.1118 62.7299 82.8202 62.7299C84.0273 62.7299 84.7588 63.0113 85.0572 63.5909C85.3038 64.0704 85.2028 64.6308 84.7565 65.2559C84.3272 65.8564 83.7352 66.174 83.0453 66.174C82.1079 66.174 81.0164 65.582 79.7993 64.4126C77.6124 64.8697 75.0587 65.6853 72.9944 66.5879C72.35 67.9554 71.7325 69.0569 71.1575 69.8647C70.3674 70.9709 69.686 71.4873 69.0115 71.4873ZM71.0634 67.536C69.4162 68.4618 68.7448 69.2226 68.6962 69.6512C68.6885 69.7221 68.6677 69.9087 69.0284 70.1846C69.1433 70.1484 69.8139 69.8424 71.0634 67.536ZM81.5753 64.112C82.2035 64.5953 82.3569 64.8397 82.7678 64.8397C82.9482 64.8397 83.4623 64.832 83.7005 64.4997C83.8153 64.3386 83.86 64.2353 83.8778 64.1798C83.783 64.1297 83.6573 64.028 82.972 64.028C82.5828 64.0287 82.0933 64.0457 81.5753 64.112ZM75.8172 59.0384C75.266 60.9454 74.5384 63.0043 73.756 64.869C75.367 64.2438 77.1183 63.6981 78.7633 63.3119C77.7227 62.1032 76.6828 60.5939 75.8172 59.0384ZM75.3493 52.5156C75.2737 52.541 74.3241 53.8699 75.4233 54.9946C76.1548 53.3643 75.3824 52.5048 75.3493 52.5156Z" fill="#CC4B4C"/>
<rect x="23" y="37" width="22" height="16" fill="#F8F8F8"/>
<path d="M29 45L23 53H45V47L39 41L33 49L29 45Z" fill="#514EFF"/>
<circle cx="28" cy="41" r="2" fill="#FFB800"/>
</g>
<defs>
<filter id="filter0_d" x="1" y="11" width="65.3335" height="82.2917" filterUnits="userSpaceOnUse" color-interpolation-filters="sRGB">
<feFlood flood-opacity="0" result="BackgroundImageFix"/>
<feColorMatrix in="SourceAlpha" type="matrix" values="0 0 0 0 0 0 0 0 0 0 0 0 0 0 0 0 0 0 127 0"/>
<feOffset dy="2"/>
<feGaussianBlur stdDeviation="4"/>
<feColorMatrix type="matrix" values="0 0 0 0 0 0 0 0 0 0 0 0 0 0 0 0 0 0 0.1 0"/>
<feBlend mode="normal" in2="BackgroundImageFix" result="effect1_dropShadow"/>
<feBlend mode="normal" in="SourceGraphic" in2="effect1_dropShadow" result="shape"/>
</filter>
<filter id="filter1_d" x="91" y="15" width="59.3333" height="76.2917" filterUnits="userSpaceOnUse" color-interpolation-filters="sRGB">
<feFlood flood-opacity="0" result="BackgroundImageFix"/>
<feColorMatrix in="SourceAlpha" type="matrix" values="0 0 0 0 0 0 0 0 0 0 0 0 0 0 0 0 0 0 127 0"/>
<feOffset dy="2"/>
<feGaussianBlur stdDeviation="2.5"/>
<feColorMatrix type="matrix" values="0 0 0 0 0 0 0 0 0 0 0 0 0 0 0 0 0 0 0.1 0"/>
<feBlend mode="normal" in2="BackgroundImageFix" result="effect1_dropShadow"/>
<feBlend mode="normal" in="SourceGraphic" in2="effect1_dropShadow" result="shape"/>
</filter>
<filter id="filter2_d" x="27.9792" y="15.7085" width="97.3333" height="114.292" filterUnits="userSpaceOnUse" color-interpolation-filters="sRGB">
<feFlood flood-opacity="0" result="BackgroundImageFix"/>
<feColorMatrix in="SourceAlpha" type="matrix" values="0 0 0 0 0 0 0 0 0 0 0 0 0 0 0 0 0 0 127 0"/>
<feOffset dy="4"/>
<feGaussianBlur stdDeviation="12"/>
<feColorMatrix type="matrix" values="0 0 0 0 0 0 0 0 0 0 0 0 0 0 0 0 0 0 0.1 0"/>
<feBlend mode="normal" in2="BackgroundImageFix" result="effect1_dropShadow"/>
<feBlend mode="normal" in="SourceGraphic" in2="effect1_dropShadow" result="shape"/>
</filter>
<filter id="filter3_d" x="117" y="15.7085" width="97.3335" height="114.292" filterUnits="userSpaceOnUse" color-interpolation-filters="sRGB">
<feFlood flood-opacity="0" result="BackgroundImageFix"/>
<feColorMatrix in="SourceAlpha" type="matrix" values="0 0 0 0 0 0 0 0 0 0 0 0 0 0 0 0 0 0 127 0"/>
<feOffset dy="4"/>
<feGaussianBlur stdDeviation="12"/>
<feColorMatrix type="matrix" values="0 0 0 0 0 0 0 0 0 0 0 0 0 0 0 0 0 0 0.1 0"/>
<feBlend mode="normal" in2="BackgroundImageFix" result="effect1_dropShadow"/>
<feBlend mode="normal" in="SourceGraphic" in2="effect1_dropShadow" result="shape"/>
</filter>
<clipPath id="clip0">
<rect width="200" height="120" fill="white"/>
</clipPath>
</defs>
</svg>
