<svg width="200" height="120" viewBox="0 0 200 120" fill="none" xmlns="http://www.w3.org/2000/svg">
<g clip-path="url(#clip0)">
<g filter="url(#filter0_d)">
<rect x="33" y="22" width="134" height="76" rx="1" fill="white"/>
</g>
<path d="M56 80.6667C56.0023 81.5466 55.7967 82.4146 55.4 83.2C54.9296 84.1412 54.2065 84.9328 53.3116 85.4862C52.4168 86.0396 51.3855 86.3329 50.3333 86.3334C49.4534 86.3356 48.5854 86.1301 47.8 85.7334L44 87L45.2667 83.2C44.87 82.4146 44.6644 81.5466 44.6667 80.6667C44.6671 79.6145 44.9604 78.5833 45.5138 77.6884C46.0672 76.7935 46.8588 76.0704 47.8 75.6C48.5854 75.2033 49.4534 74.9977 50.3333 75H50.6667C52.0562 75.0767 53.3687 75.6632 54.3528 76.6473C55.3368 77.6313 55.9233 78.9438 56 80.3334V80.6667Z" stroke="#2E70F9" stroke-width="1.5" stroke-linecap="round" stroke-linejoin="round"/>
<path d="M98.6666 87.6668H96.6666C96.313 87.6668 95.9738 87.5264 95.7238 87.2763C95.4737 87.0263 95.3333 86.6871 95.3333 86.3335V81.6668C95.3333 81.3132 95.4737 80.9741 95.7238 80.724C95.9738 80.474 96.313 80.3335 96.6666 80.3335H98.6666M103.333 79.0002V76.3335C103.333 75.8031 103.123 75.2944 102.747 74.9193C102.372 74.5442 101.864 74.3335 101.333 74.3335L98.6666 80.3335V87.6668H106.187C106.508 87.6705 106.82 87.5578 107.065 87.3495C107.31 87.1412 107.472 86.8514 107.52 86.5335L108.44 80.5335C108.469 80.3424 108.456 80.1473 108.402 79.9617C108.348 79.776 108.255 79.6044 108.128 79.4585C108.001 79.3127 107.844 79.1961 107.668 79.117C107.491 79.0378 107.3 78.998 107.107 79.0002H103.333Z" stroke="#2E70F9" stroke-width="1.5" stroke-linecap="round" stroke-linejoin="round"/>
<path d="M66.7354 80.4082H67.6855C68.2826 80.3991 68.752 80.2419 69.0938 79.9365C69.4355 79.6312 69.6064 79.2188 69.6064 78.6992C69.6064 77.5326 69.0254 76.9492 67.8633 76.9492C67.3164 76.9492 66.8789 77.1064 66.5508 77.4209C66.2272 77.7308 66.0654 78.1432 66.0654 78.6582H64.8008C64.8008 77.8698 65.0879 77.2158 65.6621 76.6963C66.2409 76.1722 66.9746 75.9102 67.8633 75.9102C68.8021 75.9102 69.5381 76.1585 70.0713 76.6553C70.6045 77.152 70.8711 77.8424 70.8711 78.7266C70.8711 79.1595 70.7298 79.5788 70.4473 79.9844C70.1693 80.39 69.7887 80.693 69.3057 80.8936C69.8525 81.0667 70.2741 81.3538 70.5703 81.7549C70.8711 82.1559 71.0215 82.6458 71.0215 83.2246C71.0215 84.1178 70.7298 84.8265 70.1465 85.3506C69.5632 85.8747 68.8044 86.1367 67.8701 86.1367C66.9359 86.1367 66.1748 85.8838 65.5869 85.3779C65.0036 84.8721 64.7119 84.2044 64.7119 83.375H65.9834C65.9834 83.8991 66.1543 84.3184 66.4961 84.6328C66.8379 84.9473 67.2959 85.1045 67.8701 85.1045C68.4808 85.1045 68.9479 84.945 69.2715 84.626C69.5951 84.307 69.7568 83.849 69.7568 83.252C69.7568 82.6732 69.5791 82.2288 69.2236 81.9189C68.8682 81.609 68.3555 81.4495 67.6855 81.4404H66.7354V80.4082Z" fill="#8D8D8D"/>
<path d="M117.478 81.0098L117.983 76.0469H123.083V77.2158H119.057L118.756 79.9297C119.243 79.6426 119.797 79.499 120.417 79.499C121.324 79.499 122.044 79.7998 122.577 80.4014C123.11 80.9984 123.377 81.8073 123.377 82.8281C123.377 83.8535 123.099 84.6624 122.543 85.2549C121.992 85.8428 121.219 86.1367 120.226 86.1367C119.346 86.1367 118.628 85.8929 118.072 85.4053C117.516 84.9176 117.2 84.2432 117.122 83.3818H118.318C118.396 83.9515 118.599 84.3822 118.927 84.6738C119.255 84.9609 119.688 85.1045 120.226 85.1045C120.813 85.1045 121.274 84.904 121.606 84.5029C121.944 84.1019 122.112 83.5482 122.112 82.8418C122.112 82.1764 121.93 81.6432 121.565 81.2422C121.205 80.8366 120.725 80.6338 120.123 80.6338C119.572 80.6338 119.139 80.7546 118.824 80.9961L118.489 81.2695L117.478 81.0098Z" fill="#8D8D8D"/>
<path d="M45 36.932C66.3845 35.3104 88.1189 36.2976 109.549 36.2976C122.818 36.2976 136.087 36.2976 149.356 36.2976" stroke="#D4D4D4" stroke-width="7" stroke-linecap="round" stroke-linejoin="round"/>
<path d="M46.9033 52.9852C56.5065 51.5447 66.187 51.3992 75.8736 51.3992C85.7735 51.3992 95.6655 51.082 105.566 51.082C112.128 51.082 118.689 51.082 125.25 51.082" stroke="#D4D4D4" stroke-width="7" stroke-linecap="round" stroke-linejoin="round"/>
</g>
<defs>
<filter id="filter0_d" x="9" y="2" width="182" height="124" filterUnits="userSpaceOnUse" color-interpolation-filters="sRGB">
<feFlood flood-opacity="0" result="BackgroundImageFix"/>
<feColorMatrix in="SourceAlpha" type="matrix" values="0 0 0 0 0 0 0 0 0 0 0 0 0 0 0 0 0 0 127 0"/>
<feOffset dy="4"/>
<feGaussianBlur stdDeviation="12"/>
<feColorMatrix type="matrix" values="0 0 0 0 0 0 0 0 0 0 0 0 0 0 0 0 0 0 0.1 0"/>
<feBlend mode="normal" in2="BackgroundImageFix" result="effect1_dropShadow"/>
<feBlend mode="normal" in="SourceGraphic" in2="effect1_dropShadow" result="shape"/>
</filter>
<clipPath id="clip0">
<rect width="200" height="120" fill="white"/>
</clipPath>
</defs>
</svg>
