<svg width="200" height="120" viewBox="0 0 200 120" fill="none" xmlns="http://www.w3.org/2000/svg">
<path d="M168 9.5H32C30.067 9.5 28.5 11.067 28.5 13V107C28.5 108.933 30.067 110.5 32 110.5H168C169.933 110.5 171.5 108.933 171.5 107V13C171.5 11.067 169.933 9.5 168 9.5Z" fill="white" stroke="#F4F4F4"/>
<rect x="87" y="32" width="60" height="8" rx="4" fill="#2E70F9"/>
<rect x="87" y="56" width="40" height="8" rx="4" fill="#C4C4C4"/>
<rect x="87" y="80" width="8" height="8" rx="4" fill="#C4C4C4"/>
<path d="M57.531 41.165C58.0297 41.165 58.488 41.0477 58.906 40.813C59.324 40.5747 59.6595 40.2557 59.9125 39.856C60.1655 39.4527 60.292 39.0017 60.292 38.503C60.292 38.0043 60.1838 37.5607 59.9675 37.172C59.7548 36.7833 59.4578 36.4772 59.0765 36.2535C58.6988 36.0298 58.2607 35.918 57.762 35.918C57.2157 35.918 56.728 36.0812 56.299 36.4075V35.731C56.299 35.489 56.3558 35.2617 56.4695 35.049C56.5868 34.8327 56.75 34.6585 56.959 34.5265C57.1717 34.3908 57.421 34.323 57.707 34.323C58.0883 34.323 58.4183 34.4623 58.697 34.741L59.764 33.674C59.4743 33.4027 59.1553 33.2102 58.807 33.0965C58.4587 32.9828 58.092 32.926 57.707 32.926C57.113 32.926 56.596 33.0488 56.156 33.2945C55.716 33.5365 55.375 33.8848 55.133 34.3395C54.891 34.7905 54.77 35.3277 54.77 35.951V38.25C54.77 38.8257 54.891 39.3335 55.133 39.7735C55.375 40.2098 55.7032 40.5508 56.1175 40.7965C56.5355 41.0422 57.0067 41.165 57.531 41.165ZM57.531 39.735C57.3037 39.735 57.0965 39.6782 56.9095 39.5645C56.7225 39.4508 56.574 39.3005 56.464 39.1135C56.354 38.9265 56.299 38.723 56.299 38.503C56.299 38.2757 56.354 38.0685 56.464 37.8815C56.5777 37.6908 56.728 37.5405 56.915 37.4305C57.1057 37.3168 57.3147 37.26 57.542 37.26C57.7693 37.26 57.9765 37.3168 58.1635 37.4305C58.3505 37.5405 58.499 37.6908 58.609 37.8815C58.719 38.0685 58.774 38.2757 58.774 38.503C58.774 38.7303 58.7172 38.9375 58.6035 39.1245C58.4935 39.3115 58.3432 39.46 58.1525 39.57C57.9655 39.68 57.7583 39.735 57.531 39.735ZM64.5498 41.165C65.1364 41.165 65.6498 41.0422 66.0898 40.7965C66.5298 40.5508 66.8726 40.208 67.1183 39.768C67.3639 39.328 67.4868 38.8147 67.4868 38.228V35.852C67.4868 35.2653 67.3639 34.752 67.1183 34.312C66.8726 33.872 66.5298 33.5292 66.0898 33.2835C65.6498 33.0378 65.1364 32.915 64.5498 32.915C63.9631 32.915 63.4498 33.0378 63.0098 33.2835C62.5698 33.5292 62.2269 33.872 61.9813 34.312C61.7356 34.752 61.6128 35.2653 61.6128 35.852V38.228C61.6128 38.8147 61.7356 39.328 61.9813 39.768C62.2269 40.208 62.5698 40.5508 63.0098 40.7965C63.4498 41.0422 63.9631 41.165 64.5498 41.165ZM64.5498 39.746C64.2858 39.746 64.0474 39.6837 63.8348 39.559C63.6221 39.4343 63.4534 39.2657 63.3288 39.053C63.2041 38.8403 63.1418 38.602 63.1418 38.338V35.731C63.1418 35.467 63.2041 35.2287 63.3288 35.016C63.4534 34.8033 63.6221 34.6347 63.8348 34.51C64.0474 34.3853 64.2858 34.323 64.5498 34.323C64.8138 34.323 65.0521 34.3853 65.2648 34.51C65.4774 34.6347 65.6461 34.8033 65.7708 35.016C65.8954 35.2287 65.9578 35.467 65.9578 35.731V38.338C65.9578 38.602 65.8954 38.8403 65.7708 39.053C65.6461 39.2657 65.4774 39.4343 65.2648 39.559C65.0521 39.6837 64.8138 39.746 64.5498 39.746ZM70.8949 36.875C71.2579 36.875 71.5879 36.787 71.8849 36.611C72.1855 36.4313 72.4257 36.193 72.6054 35.896C72.785 35.5953 72.8749 35.2617 72.8749 34.895C72.8749 34.5283 72.785 34.1965 72.6054 33.8995C72.4257 33.5988 72.1855 33.3605 71.8849 33.1845C71.5879 33.0048 71.2579 32.915 70.8949 32.915C70.5429 32.915 70.2165 33.0048 69.9159 33.1845C69.6152 33.3642 69.3732 33.6043 69.1899 33.905C69.0065 34.2057 68.9149 34.5357 68.9149 34.895C68.9149 35.2617 69.0047 35.5953 69.1844 35.896C69.364 36.193 69.6024 36.4313 69.8994 36.611C70.2 36.787 70.5319 36.875 70.8949 36.875ZM70.2349 41L77.1649 34.081L76.1749 33.08L69.2449 40.01L70.2349 41ZM70.8949 35.61C70.7042 35.61 70.5374 35.5385 70.3944 35.3955C70.2514 35.2525 70.1799 35.0857 70.1799 34.895C70.1799 34.7007 70.2514 34.5338 70.3944 34.3945C70.5374 34.2515 70.7042 34.18 70.8949 34.18C71.0892 34.18 71.256 34.2515 71.3954 34.3945C71.5384 34.5338 71.6099 34.7007 71.6099 34.895C71.6099 35.0857 71.5384 35.2525 71.3954 35.3955C71.256 35.5385 71.0892 35.61 70.8949 35.61ZM75.5149 41.165C75.8779 41.165 76.2079 41.077 76.5049 40.901C76.8055 40.7213 77.0457 40.483 77.2254 40.186C77.405 39.8853 77.4949 39.5517 77.4949 39.185C77.4949 38.8183 77.405 38.4865 77.2254 38.1895C77.0457 37.8888 76.8055 37.6505 76.5049 37.4745C76.2079 37.2948 75.8779 37.205 75.5149 37.205C75.1629 37.205 74.8365 37.2948 74.5359 37.4745C74.2352 37.6542 73.9932 37.8943 73.8099 38.195C73.6265 38.4957 73.5349 38.8257 73.5349 39.185C73.5349 39.5517 73.6229 39.8853 73.7989 40.186C73.9785 40.483 74.2187 40.7213 74.5194 40.901C74.82 41.077 75.1519 41.165 75.5149 41.165ZM75.5149 39.9C75.3242 39.9 75.1574 39.8285 75.0144 39.6855C74.8714 39.5425 74.7999 39.3757 74.7999 39.185C74.7999 38.9907 74.8714 38.8238 75.0144 38.6845C75.1574 38.5415 75.3242 38.47 75.5149 38.47C75.7092 38.47 75.876 38.5415 76.0154 38.6845C76.1584 38.8238 76.2299 38.9907 76.2299 39.185C76.2299 39.3757 76.1584 39.5425 76.0154 39.6855C75.876 39.8285 75.7092 39.9 75.5149 39.9Z" fill="#525252"/>
<path d="M57.993 65H59.511V63.768H60.215V62.371H59.511V60.391H57.993V62.371H56.266L58.763 57.08H57.047L54.55 62.371V63.768H57.993V65ZM64.4746 65.165C65.0612 65.165 65.5746 65.0422 66.0146 64.7965C66.4546 64.5508 66.7974 64.208 67.0431 63.768C67.2887 63.328 67.4116 62.8147 67.4116 62.228V59.852C67.4116 59.2653 67.2887 58.752 67.0431 58.312C66.7974 57.872 66.4546 57.5292 66.0146 57.2835C65.5746 57.0378 65.0612 56.915 64.4746 56.915C63.8879 56.915 63.3746 57.0378 62.9346 57.2835C62.4946 57.5292 62.1517 57.872 61.9061 58.312C61.6604 58.752 61.5376 59.2653 61.5376 59.852V62.228C61.5376 62.8147 61.6604 63.328 61.9061 63.768C62.1517 64.208 62.4946 64.5508 62.9346 64.7965C63.3746 65.0422 63.8879 65.165 64.4746 65.165ZM64.4746 63.746C64.2106 63.746 63.9722 63.6837 63.7596 63.559C63.5469 63.4343 63.3782 63.2657 63.2536 63.053C63.1289 62.8403 63.0666 62.602 63.0666 62.338V59.731C63.0666 59.467 63.1289 59.2287 63.2536 59.016C63.3782 58.8033 63.5469 58.6347 63.7596 58.51C63.9722 58.3853 64.2106 58.323 64.4746 58.323C64.7386 58.323 64.9769 58.3853 65.1896 58.51C65.4022 58.6347 65.5709 58.8033 65.6956 59.016C65.8202 59.2287 65.8826 59.467 65.8826 59.731V62.338C65.8826 62.602 65.8202 62.8403 65.6956 63.053C65.5709 63.2657 65.4022 63.4343 65.1896 63.559C64.9769 63.6837 64.7386 63.746 64.4746 63.746ZM70.8197 60.875C71.1827 60.875 71.5127 60.787 71.8097 60.611C72.1104 60.4313 72.3505 60.193 72.5302 59.896C72.7099 59.5953 72.7997 59.2617 72.7997 58.895C72.7997 58.5283 72.7099 58.1965 72.5302 57.8995C72.3505 57.5988 72.1104 57.3605 71.8097 57.1845C71.5127 57.0048 71.1827 56.915 70.8197 56.915C70.4677 56.915 70.1414 57.0048 69.8407 57.1845C69.54 57.3642 69.298 57.6043 69.1147 57.905C68.9314 58.2057 68.8397 58.5357 68.8397 58.895C68.8397 59.2617 68.9295 59.5953 69.1092 59.896C69.2889 60.193 69.5272 60.4313 69.8242 60.611C70.1249 60.787 70.4567 60.875 70.8197 60.875ZM70.1597 65L77.0897 58.081L76.0997 57.08L69.1697 64.01L70.1597 65ZM70.8197 59.61C70.629 59.61 70.4622 59.5385 70.3192 59.3955C70.1762 59.2525 70.1047 59.0857 70.1047 58.895C70.1047 58.7007 70.1762 58.5338 70.3192 58.3945C70.4622 58.2515 70.629 58.18 70.8197 58.18C71.014 58.18 71.1809 58.2515 71.3202 58.3945C71.4632 58.5338 71.5347 58.7007 71.5347 58.895C71.5347 59.0857 71.4632 59.2525 71.3202 59.3955C71.1809 59.5385 71.014 59.61 70.8197 59.61ZM75.4397 65.165C75.8027 65.165 76.1327 65.077 76.4297 64.901C76.7304 64.7213 76.9705 64.483 77.1502 64.186C77.3299 63.8853 77.4197 63.5517 77.4197 63.185C77.4197 62.8183 77.3299 62.4865 77.1502 62.1895C76.9705 61.8888 76.7304 61.6505 76.4297 61.4745C76.1327 61.2948 75.8027 61.205 75.4397 61.205C75.0877 61.205 74.7614 61.2948 74.4607 61.4745C74.16 61.6542 73.918 61.8943 73.7347 62.195C73.5514 62.4957 73.4597 62.8257 73.4597 63.185C73.4597 63.5517 73.5477 63.8853 73.7237 64.186C73.9034 64.483 74.1435 64.7213 74.4442 64.901C74.7449 65.077 75.0767 65.165 75.4397 65.165ZM75.4397 63.9C75.249 63.9 75.0822 63.8285 74.9392 63.6855C74.7962 63.5425 74.7247 63.3757 74.7247 63.185C74.7247 62.9907 74.7962 62.8238 74.9392 62.6845C75.0822 62.5415 75.249 62.47 75.4397 62.47C75.634 62.47 75.8009 62.5415 75.9402 62.6845C76.0832 62.8238 76.1547 62.9907 76.1547 63.185C76.1547 63.3757 76.0832 63.5425 75.9402 63.6855C75.8009 63.8285 75.634 63.9 75.4397 63.9Z" fill="#525252"/>
<path d="M57.707 89.165C58.2937 89.165 58.807 89.0422 59.247 88.7965C59.687 88.5508 60.0298 88.208 60.2755 87.768C60.5212 87.328 60.644 86.8147 60.644 86.228V83.852C60.644 83.2653 60.5212 82.752 60.2755 82.312C60.0298 81.872 59.687 81.5292 59.247 81.2835C58.807 81.0378 58.2937 80.915 57.707 80.915C57.1203 80.915 56.607 81.0378 56.167 81.2835C55.727 81.5292 55.3842 81.872 55.1385 82.312C54.8928 82.752 54.77 83.2653 54.77 83.852V86.228C54.77 86.8147 54.8928 87.328 55.1385 87.768C55.3842 88.208 55.727 88.5508 56.167 88.7965C56.607 89.0422 57.1203 89.165 57.707 89.165ZM57.707 87.746C57.443 87.746 57.2047 87.6837 56.992 87.559C56.7793 87.4343 56.6107 87.2657 56.486 87.053C56.3613 86.8403 56.299 86.602 56.299 86.338V83.731C56.299 83.467 56.3613 83.2287 56.486 83.016C56.6107 82.8033 56.7793 82.6347 56.992 82.51C57.2047 82.3853 57.443 82.323 57.707 82.323C57.971 82.323 58.2093 82.3853 58.422 82.51C58.6347 82.6347 58.8033 82.8033 58.928 83.016C59.0527 83.2287 59.115 83.467 59.115 83.731V86.338C59.115 86.602 59.0527 86.8403 58.928 87.053C58.8033 87.2657 58.6347 87.4343 58.422 87.559C58.2093 87.6837 57.971 87.746 57.707 87.746ZM64.0521 84.875C64.4151 84.875 64.7451 84.787 65.0421 84.611C65.3428 84.4313 65.5829 84.193 65.7626 83.896C65.9423 83.5953 66.0321 83.2617 66.0321 82.895C66.0321 82.5283 65.9423 82.1965 65.7626 81.8995C65.5829 81.5988 65.3428 81.3605 65.0421 81.1845C64.7451 81.0048 64.4151 80.915 64.0521 80.915C63.7001 80.915 63.3738 81.0048 63.0731 81.1845C62.7724 81.3642 62.5304 81.6043 62.3471 81.905C62.1638 82.2057 62.0721 82.5357 62.0721 82.895C62.0721 83.2617 62.1619 83.5953 62.3416 83.896C62.5213 84.193 62.7596 84.4313 63.0566 84.611C63.3573 84.787 63.6891 84.875 64.0521 84.875ZM63.3921 89L70.3221 82.081L69.3321 81.08L62.4021 88.01L63.3921 89ZM64.0521 83.61C63.8614 83.61 63.6946 83.5385 63.5516 83.3955C63.4086 83.2525 63.3371 83.0857 63.3371 82.895C63.3371 82.7007 63.4086 82.5338 63.5516 82.3945C63.6946 82.2515 63.8614 82.18 64.0521 82.18C64.2464 82.18 64.4133 82.2515 64.5526 82.3945C64.6956 82.5338 64.7671 82.7007 64.7671 82.895C64.7671 83.0857 64.6956 83.2525 64.5526 83.3955C64.4133 83.5385 64.2464 83.61 64.0521 83.61ZM68.6721 89.165C69.0351 89.165 69.3651 89.077 69.6621 88.901C69.9628 88.7213 70.2029 88.483 70.3826 88.186C70.5623 87.8853 70.6521 87.5517 70.6521 87.185C70.6521 86.8183 70.5623 86.4865 70.3826 86.1895C70.2029 85.8888 69.9628 85.6505 69.6621 85.4745C69.3651 85.2948 69.0351 85.205 68.6721 85.205C68.3201 85.205 67.9938 85.2948 67.6931 85.4745C67.3924 85.6542 67.1504 85.8943 66.9671 86.195C66.7838 86.4957 66.6921 86.8257 66.6921 87.185C66.6921 87.5517 66.7801 87.8853 66.9561 88.186C67.1358 88.483 67.3759 88.7213 67.6766 88.901C67.9773 89.077 68.3091 89.165 68.6721 89.165ZM68.6721 87.9C68.4814 87.9 68.3146 87.8285 68.1716 87.6855C68.0286 87.5425 67.9571 87.3757 67.9571 87.185C67.9571 86.9907 68.0286 86.8238 68.1716 86.6845C68.3146 86.5415 68.4814 86.47 68.6721 86.47C68.8664 86.47 69.0333 86.5415 69.1726 86.6845C69.3156 86.8238 69.3871 86.9907 69.3871 87.185C69.3871 87.3757 69.3156 87.5425 69.1726 87.6855C69.0333 87.8285 68.8664 87.9 68.6721 87.9Z" fill="#525252"/>
</svg>
