<svg width="200" height="120" viewBox="0 0 200 120" fill="none" xmlns="http://www.w3.org/2000/svg">
<g clip-path="url(#clip0)">
<g filter="url(#filter0_d)">
<rect x="16" y="36" width="168" height="48" rx="24" fill="white"/>
</g>
<path d="M42.0001 68.3332C46.6025 68.3332 50.3334 64.6022 50.3334 59.9998C50.3334 55.3975 46.6025 51.6665 42.0001 51.6665C37.3977 51.6665 33.6667 55.3975 33.6667 59.9998C33.6667 64.6022 37.3977 68.3332 42.0001 68.3332Z" stroke="#949495" stroke-width="2" stroke-linecap="round" stroke-linejoin="round"/>
<path d="M33.6667 60H50.3334" stroke="#949495" stroke-width="2" stroke-linecap="round" stroke-linejoin="round"/>
<path d="M42.0001 51.6665C44.0845 53.9485 45.269 56.9099 45.3334 59.9998C45.269 63.0898 44.0845 66.0512 42.0001 68.3332C39.9157 66.0512 38.7311 63.0898 38.6667 59.9998C38.7311 56.9099 39.9157 53.9485 42.0001 51.6665V51.6665Z" stroke="#949495" stroke-width="2" stroke-linecap="round" stroke-linejoin="round"/>
<circle cx="160" cy="60" r="19" fill="#2E70F9"/>
<g clip-path="url(#clip1)">
<path d="M158.25 53.5335C158.824 53.3992 159.411 53.3321 160 53.3335C165.833 53.3335 169.167 60.0002 169.167 60.0002C168.661 60.9465 168.057 61.8375 167.367 62.6585M161.767 61.7668C161.538 62.0125 161.262 62.2095 160.955 62.3461C160.648 62.4828 160.317 62.5562 159.982 62.5622C159.646 62.5681 159.313 62.5063 159.001 62.3806C158.69 62.2549 158.407 62.0677 158.17 61.8303C157.932 61.5929 157.745 61.3101 157.62 60.9988C157.494 60.6875 157.432 60.3541 157.438 60.0184C157.444 59.6828 157.517 59.3517 157.654 59.0451C157.791 58.7384 157.988 58.4624 158.233 58.2335M164.95 64.9502C163.525 66.036 161.791 66.6376 160 66.6668C154.167 66.6668 150.833 60.0002 150.833 60.0002C151.87 58.0684 153.308 56.3807 155.05 55.0502L164.95 64.9502Z" stroke="white" stroke-width="2" stroke-linecap="round" stroke-linejoin="round"/>
<path d="M150.833 50.8335L169.167 69.1668" stroke="white" stroke-width="2" stroke-linecap="round" stroke-linejoin="round"/>
</g>
</g>
<defs>
<filter id="filter0_d" x="-8" y="16" width="216" height="96" filterUnits="userSpaceOnUse" color-interpolation-filters="sRGB">
<feFlood flood-opacity="0" result="BackgroundImageFix"/>
<feColorMatrix in="SourceAlpha" type="matrix" values="0 0 0 0 0 0 0 0 0 0 0 0 0 0 0 0 0 0 127 0"/>
<feOffset dy="4"/>
<feGaussianBlur stdDeviation="12"/>
<feColorMatrix type="matrix" values="0 0 0 0 0 0 0 0 0 0 0 0 0 0 0 0 0 0 0.1 0"/>
<feBlend mode="normal" in2="BackgroundImageFix" result="effect1_dropShadow"/>
<feBlend mode="normal" in="SourceGraphic" in2="effect1_dropShadow" result="shape"/>
</filter>
<clipPath id="clip0">
<rect width="200" height="120" fill="white"/>
</clipPath>
<clipPath id="clip1">
<rect width="20" height="20" fill="white" transform="translate(150 50)"/>
</clipPath>
</defs>
</svg>
