<svg width="200" height="120" viewBox="0 0 200 120" fill="none" xmlns="http://www.w3.org/2000/svg">
<rect x="80" y="45" width="42" height="2" rx="1" fill="#A8B5CE"/>
<rect x="26" y="21" width="42" height="23" rx="2" fill="#E3E8F3"/>
<rect x="26" y="48" width="42" height="23" rx="2" stroke="#A8B5CE" stroke-dasharray="5 5"/>
<rect x="79" y="21" width="43" height="23" rx="2" fill="#E3E8F3"/>
<rect x="133" y="21" width="42" height="23" rx="2" fill="#E3E8F3"/>
<g filter="url(#filter0_d)">
<rect x="52" y="40.3809" width="42" height="23" rx="2" transform="rotate(-10.1211 52 40.3809)" fill="#2E70F9"/>
</g>
<rect x="133" y="48" width="42" height="23" rx="2" fill="#E3E8F3"/>
<rect x="26" y="75" width="42" height="23" rx="2" fill="#E3E8F3"/>
<g filter="url(#filter1_d)">
<path d="M85.0183 52.8311C85.4613 52.525 86.361 52.4224 86.7869 52.9408C87.093 53.3838 87.4436 54.0218 87.4214 53.9243C87.3325 53.5343 87.1546 52.7543 87.1632 52.3421C87.194 52.0274 87.3224 51.6904 87.6901 51.504C87.9604 51.3399 88.2529 51.2732 88.5454 51.2065C88.8601 51.2373 89.1971 51.3656 89.4365 51.5162C89.9599 52.0122 90.2488 53.2797 90.2266 53.1822C90.2574 52.8675 90.0574 51.99 90.1634 51.5556C90.2165 51.3383 90.562 51.0544 90.7348 50.9125C91.0051 50.7483 91.3951 50.6594 91.7098 50.6902C91.9048 50.6457 92.3615 50.8493 92.5034 51.0221C92.7651 51.2701 93.0849 52.2229 93.2713 52.5907C93.2935 52.6882 93.2799 52.1784 93.4082 51.8415C93.6648 51.1676 94.9853 50.6614 95.394 52.0042C95.5496 52.6866 95.5274 52.5891 95.6385 53.0766C95.7497 53.5641 95.8163 53.8566 95.9052 54.2466C95.9942 54.6366 96.0967 55.5363 96.0881 55.9485C96.0573 56.2633 95.9204 57.0124 95.7168 57.4691C95.7168 57.4691 94.9111 58.8836 94.9469 59.4908C94.9828 60.098 94.9828 60.098 95.0717 60.488C95.1606 60.878 95.3693 61.3433 95.3693 61.3433C95.3693 61.3433 94.6115 61.6186 94.1993 61.61C93.7871 61.6014 93.144 61.0301 92.9798 60.7598C92.7181 60.5118 92.4256 60.5785 92.2973 60.9154C92.1912 61.3499 91.8593 62.1435 91.5668 62.2102C90.9066 62.4633 89.5194 62.6769 88.5444 62.8992C88.5444 62.8992 88.5171 61.8798 88.0382 61.5787C87.679 61.3529 87.0804 60.9765 86.7212 60.7507L85.7412 60.0511C85.3598 59.7278 84.5661 59.3959 84.1266 58.3678C83.7316 57.5348 83.6205 57.0473 83.7265 56.6129C83.8326 56.1784 84.2757 55.8723 84.4707 55.8278C84.6657 55.7834 85.1531 55.6722 85.3704 55.7253C85.5876 55.7783 85.7073 55.8536 85.9468 56.0041C86.2085 56.2522 86.3504 56.4249 86.164 56.0572C85.9998 55.7869 85.7381 55.5389 85.5517 55.1711C85.3653 54.8033 84.9617 54.3825 84.8283 53.7975C85 53.5 84.9814 53.1822 85.0183 52.8311Z" fill="white"/>
<path d="M85.4081 52.7421C85.8512 52.4359 86.361 52.4224 86.7869 52.9408C87.093 53.3838 87.4436 54.0218 87.4214 53.9243C87.3325 53.5343 87.1546 52.7543 87.1632 52.3421C87.194 52.0274 87.3224 51.6904 87.6901 51.504C87.9604 51.3399 88.2529 51.2732 88.5454 51.2065C88.8601 51.2373 89.1971 51.3656 89.4365 51.5162C89.9599 52.0122 90.2488 53.2797 90.2266 53.1822C90.2574 52.8675 90.0574 51.99 90.1634 51.5556C90.2165 51.3383 90.562 51.0544 90.7348 50.9125C91.0051 50.7483 91.3951 50.6594 91.7098 50.6902C91.9048 50.6457 92.3615 50.8493 92.5034 51.0221C92.7651 51.2701 93.0849 52.2229 93.2713 52.5907C93.2935 52.6882 93.2799 52.1784 93.4082 51.8415C93.6648 51.1676 94.9853 50.6614 95.394 52.0042C95.5496 52.6866 95.5274 52.5891 95.6385 53.0766C95.7497 53.5641 95.8163 53.8566 95.9052 54.2466C95.9942 54.6366 96.0967 55.5363 96.0881 55.9485C96.0573 56.2633 95.9204 57.0124 95.7168 57.4691C95.7168 57.4691 94.9111 58.8836 94.9469 59.4908C94.9828 60.098 94.9828 60.098 95.0717 60.488C95.1606 60.878 95.3693 61.3433 95.3693 61.3433C95.3693 61.3433 94.6115 61.6186 94.1993 61.61C93.7871 61.6014 93.144 61.0301 92.9798 60.7598C92.7181 60.5118 92.4256 60.5785 92.2973 60.9154C92.1912 61.3499 91.8593 62.1435 91.5668 62.2102C90.9066 62.4633 89.5194 62.6769 88.5444 62.8992C88.5444 62.8992 88.5171 61.8798 88.0382 61.5787C87.679 61.3529 87.0804 60.9765 86.7212 60.7507L85.7412 60.0511C85.3598 59.7278 84.5661 59.3959 84.1266 58.3678C83.7316 57.5348 83.6205 57.0473 83.7265 56.6129C83.8326 56.1784 84.2757 55.8723 84.4707 55.8278C84.6657 55.7834 85.1531 55.6722 85.3704 55.7253C85.5876 55.7783 85.7073 55.8536 85.9468 56.0041C86.2085 56.2522 86.3504 56.4249 86.164 56.0572C85.9998 55.7869 85.7381 55.5389 85.5517 55.1711C85.4201 54.9114 84.5443 53.4518 85.4081 52.7421Z" stroke="black" stroke-width="0.75" stroke-linejoin="round"/>
<path d="M93.5546 58.7827L92.7988 55.4678" stroke="black" stroke-width="0.75" stroke-linecap="round"/>
<path d="M91.6047 59.2273L90.7515 55.9346" stroke="black" stroke-width="0.75" stroke-linecap="round"/>
<path d="M88.8989 56.3569L89.6547 59.6719" stroke="black" stroke-width="0.75" stroke-linecap="round"/>
</g>
<defs>
<filter id="filter0_d" x="40" y="25" width="69.3882" height="54.0227" filterUnits="userSpaceOnUse" color-interpolation-filters="sRGB">
<feFlood flood-opacity="0" result="BackgroundImageFix"/>
<feColorMatrix in="SourceAlpha" type="matrix" values="0 0 0 0 0 0 0 0 0 0 0 0 0 0 0 0 0 0 127 0"/>
<feOffset dy="4"/>
<feGaussianBlur stdDeviation="6"/>
<feColorMatrix type="matrix" values="0 0 0 0 0.17875 0 0 0 0 0.440531 0 0 0 0 0.975 0 0 0 0.38 0"/>
<feBlend mode="normal" in2="BackgroundImageFix" result="effect1_dropShadow"/>
<feBlend mode="normal" in="SourceGraphic" in2="effect1_dropShadow" result="shape"/>
</filter>
<filter id="filter1_d" x="79.3137" y="46.3091" width="21.15" height="20.9652" filterUnits="userSpaceOnUse" color-interpolation-filters="sRGB">
<feFlood flood-opacity="0" result="BackgroundImageFix"/>
<feColorMatrix in="SourceAlpha" type="matrix" values="0 0 0 0 0 0 0 0 0 0 0 0 0 0 0 0 0 0 127 0"/>
<feOffset/>
<feGaussianBlur stdDeviation="2"/>
<feColorMatrix type="matrix" values="0 0 0 0 0 0 0 0 0 0 0 0 0 0 0 0 0 0 0.15 0"/>
<feBlend mode="normal" in2="BackgroundImageFix" result="effect1_dropShadow"/>
<feBlend mode="normal" in="SourceGraphic" in2="effect1_dropShadow" result="shape"/>
</filter>
</defs>
</svg>
