<svg width="200" height="120" viewBox="0 0 200 120" fill="none" xmlns="http://www.w3.org/2000/svg">
<rect x="28.5" y="9.5" width="143" height="101" rx="3.5" fill="white" stroke="#F4F4F4"/>
<path d="M88.207 34.2339H84.2012V38.4517H82.4717V28.4985H88.7949V29.8931H84.2012V32.853H88.207V34.2339ZM91.7754 38.4517H90.1143V31.0552H91.7754V38.4517ZM90.0117 29.1343C90.0117 28.8791 90.0915 28.6672 90.251 28.4985C90.415 28.3299 90.6475 28.2456 90.9482 28.2456C91.249 28.2456 91.4814 28.3299 91.6455 28.4985C91.8096 28.6672 91.8916 28.8791 91.8916 29.1343C91.8916 29.3849 91.8096 29.5946 91.6455 29.7632C91.4814 29.9272 91.249 30.0093 90.9482 30.0093C90.6475 30.0093 90.415 29.9272 90.251 29.7632C90.0915 29.5946 90.0117 29.3849 90.0117 29.1343ZM95.3574 38.4517H93.6963V27.9517H95.3574V38.4517ZM99.2539 29.2573V31.0552H100.56V32.2856H99.2539V36.4146C99.2539 36.6971 99.3086 36.9022 99.418 37.0298C99.5319 37.1528 99.7324 37.2144 100.02 37.2144C100.211 37.2144 100.405 37.1916 100.601 37.146V38.4312C100.222 38.536 99.8577 38.5884 99.5068 38.5884C98.2308 38.5884 97.5928 37.8843 97.5928 36.4761V32.2856H96.376V31.0552H97.5928V29.2573H99.2539ZM105.092 38.5884C104.039 38.5884 103.185 38.258 102.528 37.5972C101.877 36.9318 101.551 36.0477 101.551 34.9448V34.7397C101.551 34.0015 101.692 33.3429 101.975 32.7642C102.262 32.1808 102.663 31.7274 103.178 31.4038C103.693 31.0802 104.267 30.9185 104.9 30.9185C105.908 30.9185 106.685 31.2397 107.231 31.8823C107.783 32.5249 108.059 33.4341 108.059 34.6099V35.2798H103.226C103.276 35.8905 103.479 36.3735 103.834 36.729C104.194 37.0845 104.645 37.2622 105.188 37.2622C105.949 37.2622 106.568 36.9546 107.047 36.3394L107.942 37.1938C107.646 37.6359 107.25 37.98 106.753 38.2261C106.261 38.4676 105.707 38.5884 105.092 38.5884ZM104.894 32.2515C104.438 32.2515 104.069 32.411 103.786 32.73C103.508 33.049 103.33 33.4933 103.253 34.063H106.418V33.9399C106.382 33.384 106.233 32.9647 105.974 32.6821C105.714 32.395 105.354 32.2515 104.894 32.2515ZM113.227 32.5728C113.008 32.5363 112.782 32.5181 112.55 32.5181C111.789 32.5181 111.276 32.8097 111.012 33.3931V38.4517H109.351V31.0552H110.937L110.978 31.8823C111.379 31.2397 111.935 30.9185 112.646 30.9185C112.882 30.9185 113.078 30.9504 113.233 31.0142L113.227 32.5728ZM124.253 34.8286C124.253 35.9771 123.995 36.8908 123.48 37.5698C122.97 38.2489 122.266 38.5884 121.368 38.5884C120.502 38.5884 119.828 38.2762 119.345 37.6519L119.263 38.4517H117.759V27.9517H119.42V31.7661C119.898 31.201 120.543 30.9185 121.354 30.9185C122.257 30.9185 122.965 31.2534 123.48 31.9233C123.995 32.5933 124.253 33.5298 124.253 34.7329V34.8286ZM122.592 34.6851C122.592 33.883 122.451 33.2814 122.168 32.8804C121.885 32.4793 121.475 32.2788 120.938 32.2788C120.217 32.2788 119.712 32.5933 119.42 33.2222V36.271C119.716 36.9136 120.227 37.2349 120.951 37.2349C121.471 37.2349 121.872 37.0412 122.154 36.6538C122.437 36.2664 122.583 35.6808 122.592 34.897V34.6851ZM128.156 36.0728L129.66 31.0552H131.431L128.491 39.5728C128.04 40.8169 127.274 41.439 126.194 41.439C125.953 41.439 125.686 41.3979 125.395 41.3159V40.0308L125.709 40.0513C126.128 40.0513 126.443 39.9738 126.652 39.8188C126.867 39.6685 127.035 39.4132 127.158 39.0532L127.397 38.4175L124.8 31.0552H126.591L128.156 36.0728Z" fill="#2E70F9"/>
<path d="M53 39.4353V33.6772" stroke="#2E70F9" stroke-width="2" stroke-linecap="round" stroke-linejoin="round"/>
<path d="M53 30.387V24.6289" stroke="#2E70F9" stroke-width="2" stroke-linecap="round" stroke-linejoin="round"/>
<path d="M61 39.4355V32.0322" stroke="#2E70F9" stroke-width="2" stroke-linecap="round" stroke-linejoin="round"/>
<path d="M61 28.7418V24.6289" stroke="#2E70F9" stroke-width="2" stroke-linecap="round" stroke-linejoin="round"/>
<path d="M69 39.4352V35.3223" stroke="#2E70F9" stroke-width="2" stroke-linecap="round" stroke-linejoin="round"/>
<path d="M69 32.0321V24.6289" stroke="#2E70F9" stroke-width="2" stroke-linecap="round" stroke-linejoin="round"/>
<path d="M50 33.6772H56" stroke="#2E70F9" stroke-width="2" stroke-linecap="round" stroke-linejoin="round"/>
<path d="M58 28.7417H64" stroke="#2E70F9" stroke-width="2" stroke-linecap="round" stroke-linejoin="round"/>
<path d="M66 35.3223H72" stroke="#2E70F9" stroke-width="2" stroke-linecap="round" stroke-linejoin="round"/>
<path d="M140.5 31.6211L143.5 34.0888L146.5 31.6211" stroke="#C1C1C1" stroke-linecap="round"/>
<path d="M58 62.1669C77.2078 62.1669 96.4156 62.1669 115.623 62.1669C123.174 62.1669 130.719 61.645 138.25 61.645" stroke="#D4D4D4" stroke-width="2" stroke-linecap="round" stroke-linejoin="round"/>
<path d="M54 78.8664C76.1918 78.8664 98.3835 78.8664 120.575 78.8664C123.031 78.8664 125.486 78.8664 127.941 78.8664C132.596 78.8664 137.957 79.539 142.497 78.6055" stroke="#D4D4D4" stroke-width="2" stroke-linecap="round" stroke-linejoin="round"/>
<path d="M49 96.6081C81.5379 96.6081 114.236 96.3472 146.695 96.3472" stroke="#D4D4D4" stroke-width="2" stroke-linecap="round" stroke-linejoin="round"/>
</svg>
