<svg width="200" height="120" viewBox="0 0 200 120" fill="none" xmlns="http://www.w3.org/2000/svg">
<g filter="url(#filter0_d)">
<circle cx="123" cy="42" r="14" fill="white"/>
</g>
<path d="M99.3872 91.6446V88.6124C99.3872 87.004 98.7483 85.4614 97.611 84.3241C96.4736 83.1868 94.9311 82.5479 93.3227 82.5479H81.1937C79.5853 82.5479 78.0427 83.1868 76.9054 84.3241C75.7681 85.4614 75.1292 87.004 75.1292 88.6124V91.6446" stroke="#252525" stroke-width="3" stroke-linecap="round" stroke-linejoin="round"/>
<path d="M87.2581 76.4835C90.6075 76.4835 93.3226 73.7683 93.3226 70.419C93.3226 67.0697 90.6075 64.3545 87.2581 64.3545C83.9088 64.3545 81.1936 67.0697 81.1936 70.419C81.1936 73.7683 83.9088 76.4835 87.2581 76.4835Z" stroke="#252525" stroke-width="3" stroke-linecap="round" stroke-linejoin="round"/>
<path d="M110 91.6448V88.6125C109.999 87.2688 109.552 85.9635 108.729 84.9015C107.905 83.8395 106.753 83.081 105.452 82.7451" stroke="#505050" stroke-width="3" stroke-linecap="round" stroke-linejoin="round"/>
<path d="M99.3872 64.5513C100.692 64.8853 101.848 65.6439 102.674 66.7077C103.499 67.7714 103.947 69.0797 103.947 70.4263C103.947 71.7729 103.499 73.0811 102.674 74.1449C101.848 75.2086 100.692 75.9673 99.3872 76.3013" stroke="#505050" stroke-width="3" stroke-linecap="round" stroke-linejoin="round"/>
<path d="M63 91.6448V88.6125C63.001 87.2688 63.4482 85.9635 64.2714 84.9015C65.0947 83.8395 66.2473 83.081 67.5483 82.7451" stroke="#505050" stroke-width="3" stroke-linecap="round" stroke-linejoin="round"/>
<path d="M73.6128 64.5513C72.3083 64.8853 71.1521 65.6439 70.3264 66.7077C69.5007 67.7714 69.0525 69.0797 69.0525 70.4263C69.0525 71.7729 69.5007 73.0811 70.3264 74.1449C71.1521 75.2086 72.3083 75.9673 73.6128 76.3013" stroke="#505050" stroke-width="3" stroke-linecap="round" stroke-linejoin="round"/>
<path d="M123 38L123 46" stroke="#2E70F9" stroke-width="2" stroke-linecap="round"/>
<path d="M119 42L127 42" stroke="#2E70F9" stroke-width="2" stroke-linecap="round"/>
<defs>
<filter id="filter0_d" x="85" y="8" width="76" height="76" filterUnits="userSpaceOnUse" color-interpolation-filters="sRGB">
<feFlood flood-opacity="0" result="BackgroundImageFix"/>
<feColorMatrix in="SourceAlpha" type="matrix" values="0 0 0 0 0 0 0 0 0 0 0 0 0 0 0 0 0 0 127 0"/>
<feOffset dy="4"/>
<feGaussianBlur stdDeviation="12"/>
<feColorMatrix type="matrix" values="0 0 0 0 0 0 0 0 0 0 0 0 0 0 0 0 0 0 0.1 0"/>
<feBlend mode="normal" in2="BackgroundImageFix" result="effect1_dropShadow"/>
<feBlend mode="normal" in="SourceGraphic" in2="effect1_dropShadow" result="shape"/>
</filter>
</defs>
</svg>
